<?xml version="1.0" encoding="UTF-8" standalone="no"?>
<!-- Created with Inkscape (http://www.inkscape.org/) -->

<svg
   xmlns:dc="http://purl.org/dc/elements/1.1/"
   xmlns:cc="http://creativecommons.org/ns#"
   xmlns:rdf="http://www.w3.org/1999/02/22-rdf-syntax-ns#"
   xmlns:svg="http://www.w3.org/2000/svg"
   xmlns="http://www.w3.org/2000/svg"
   xmlns:sodipodi="http://sodipodi.sourceforge.net/DTD/sodipodi-0.dtd"
   xmlns:inkscape="http://www.inkscape.org/namespaces/inkscape"
   id="svg3039"
   version="1.1"
   inkscape:version="0.48.5 r10040"
   height="100%"
   width="100%"
   preserveAspectRatio="x200Y200 meet"
   viewBox="0 0 600 600"
   sodipodi:docname="expert">
  <metadata
     id="metadata3045">
    <rdf:RDF>
      <cc:Work
         rdf:about="">
        <dc:format>image/svg+xml</dc:format>
        <dc:type
           rdf:resource="http://purl.org/dc/dcmitype/StillImage" />
        <dc:title></dc:title>
      </cc:Work>
    </rdf:RDF>
  </metadata>
  <defs
     id="defs3043" />
  <sodipodi:namedview
     pagecolor="#ffffff"
     bordercolor="#666666"
     borderopacity="1"
     objecttolerance="10"
     gridtolerance="10"
     guidetolerance="10"
     inkscape:pageopacity="0"
     inkscape:pageshadow="2"
     inkscape:window-width="1366"
     inkscape:window-height="715"
     id="namedview3041"
     showgrid="false"
     inkscape:zoom="0.63469388"
     inkscape:cx="248.15113"
     inkscape:cy="173"
     inkscape:window-x="0"
     inkscape:window-y="31"
     inkscape:window-maximized="1"
     inkscape:current-layer="svg3039" />
  <g
     id="g3049">
    <path
       style="fill:#9f9ea1"
       d="m 126,326.89175 c -12.10909,-1.92524 -19.9741,-4.31199 -29.870592,-9.06468 -8.814186,-4.23292 -11.605317,-6.20702 -18.597776,-13.15372 -14.77818,-14.68148 -20.486477,-27.75358 -21.280762,-48.73334 -0.403584,-10.66004 -0.141819,-13.91234 1.73045,-21.5 2.699122,-10.9386 9.099888,-24.82533 16.197467,-35.14108 5.272789,-7.66356 22.678016,-26.14255 30.257033,-32.12364 l 3.93582,-3.10601 0.32784,-38.28464 C 109.02672,87.569546 109.03209,87.485468 111.65416,79.5 117.93484,60.372272 126.91977,48.464747 143.24368,37.635128 165.26752,23.02405 178.31049,17.817434 201,14.5794 c 28.02113,-3.99891 81.76198,-6.7059902 92.78958,-4.6740749 7.38219,1.3602209 12.76753,3.8328809 15.78441,7.2473569 3.99681,4.52355 17.87795,30.456964 22.39922,41.847318 2.51064,6.325 4.88749,12.009406 5.28189,12.632014 0.3944,0.622608 3.76085,1.451324 7.481,1.841591 18.95166,1.98815 38.21867,6.883737 46.09301,11.711851 22.91894,14.052634 26.1852,38.901964 9.63387,73.293274 -7.38172,15.33817 -15.40546,27.01683 -28.18338,41.02127 -26.64204,29.19935 -52.90383,51.57571 -85.48119,72.83426 -54.87903,35.81163 -86.53001,50.32776 -119.12077,54.63252 -9.21556,1.21724 -33.82835,1.17293 -41.67764,-0.075 z"
       id="path3063"
       inkscape:connector-curvature="0" />
    <path
       style="fill:#535156"
       d="M 130.81582,325.99081 C 118.064,324.52291 106.01803,321.18698 96.12079,316.3826 80.247582,308.67734 66.338237,292.9796 60.977689,276.72097 52.790845,251.89014 58.124286,224.49082 76.106535,199 81.076476,191.95484 97.901456,174.25986 106.25,167.29786 l 3.75,-3.12719 0.20695,-12.83534 c 0.11383,-7.05943 0.10698,-23.89442 -0.0152,-37.41109 -0.21689,-23.992681 -0.1611,-24.762811 2.35124,-32.459152 3.4021,-10.42206 9.28666,-21.558404 15.34488,-29.039699 7.97563,-9.849099 32.45298,-25.259243 49.13283,-30.932427 17.17554,-5.841776 57.75314,-10.185615 99.47931,-10.649274 17.76727,-0.19743 24.95652,1.145232 30.32649,5.663766 C 312.26844,21.086556 334,62.710379 334,68.554593 c 0,0.673112 0.7875,2.150187 1.75,3.282389 1.42958,1.681641 4.40488,2.432706 16.25,4.102057 25.00274,3.523672 36.08305,7.540101 45.9162,16.643859 15.05534,13.938592 15.4118,35.991302 1.0655,65.917102 -8.93463,18.63727 -16.93667,29.29188 -38.95562,51.8689 -32.63405,33.46117 -64.76563,57.36441 -119.52608,88.91754 -21.1328,12.17678 -50.52018,23.08107 -69.24648,25.69416 -10.72239,1.49621 -31.66975,2.01952 -40.4377,1.01021 z M 343.09751,169.25 c 0.57641,-1.5125 1.30857,-4.04777 1.62704,-5.63393 0.8839,-4.40245 -2.00505,-2.83473 -3.15092,1.70988 -1.0043,3.98315 -2.57363,4.95313 -2.57363,1.59072 0,-2.73134 -2.39838,-1.95081 -2.82036,0.91785 -0.22329,1.5179 0.38278,2.45982 2,3.10829 3.47671,1.39409 3.78145,1.2892 4.91787,-1.69281 z m -2.5806,-12.2827 C 342.06318,153.97715 344,153.75012 344,156.55902 c 0,3.50256 3.41321,0.62711 4.52801,-3.81461 C 349.0571,150.63634 348.85756,150 347.66743,150 c -0.85217,0 -1.84415,0.47693 -2.20441,1.05984 -0.41818,0.67662 -1.09984,0.45152 -1.88521,-0.62254 -1.10534,-1.51165 -1.55228,-1.29163 -4.404,2.168 -3.16465,3.83928 -3.77039,5.46479 -2.50714,6.72803 1.27415,1.27415 2.29094,0.64932 3.85024,-2.36603 z"
       id="path3061"
       inkscape:connector-curvature="0" />
    <path
       style="fill:#3c3a41"
       d="m 136,325.34785 c -10.54691,-1.09367 -24.31012,-3.86276 -31.04536,-6.24618 -30.50589,-10.79517 -48.505351,-37.98788 -46.651231,-70.47841 0.960903,-16.8383 7.039572,-32.9572 18.607074,-49.34067 5.269983,-7.46407 21.372763,-24.42132 28.858247,-30.38958 l 4.26873,-3.4035 0.52458,-10.99476 c 0.28852,-6.04711 0.53567,-23.29709 0.54922,-38.33328 0.0239,-26.554229 0.0974,-27.558328 2.56167,-35.000001 3.6805,-11.114537 9.82593,-22.133976 16.41601,-29.435707 8.949,-9.91539 32.37684,-24.023247 48.79186,-29.38165 16.23429,-5.299406 48.70633,-9.038831 86.61516,-9.974453 29.06701,-0.717398 34.80104,-0.07028 40.73468,4.597125 5.15853,4.057699 27.71516,47.740696 27.76018,53.760163 0.0189,2.519103 4.87212,4.122401 17.50918,5.784224 22.45972,2.953542 36.2381,7.851492 45.49198,16.171531 5.99961,5.394165 8.45276,9.798948 10.59019,19.015368 3.48632,15.03272 -3.14793,38.38546 -17.55722,61.80193 -14.23772,23.13764 -53.54703,61.39992 -89.02495,86.65372 -15.21581,10.83088 -21.40331,14.76853 -56,35.63781 -13.87638,8.37045 -42.52756,20.82482 -56.62196,24.61299 -13.54098,3.63941 -40.45597,6.1796 -52.37804,4.94333 z M 341.84778,176.68341 c 0.60097,-0.72413 2.19921,-5.33663 3.55165,-10.25 1.35243,-4.91338 2.89213,-10.33564 3.42155,-12.04949 1.22401,-3.96234 0.5495,-4.93543 -4.00082,-5.77183 -3.52867,-0.64861 -3.81247,-0.48362 -6.90859,4.01644 -2.79001,4.05514 -3.08848,5.06443 -2.1965,7.42756 0.59306,1.57121 0.66705,3.31105 0.1739,4.08932 -1.1801,1.86236 -1.10856,6.60084 0.11103,7.35459 0.55,0.33992 1,1.40148 1,2.35902 0,1.73419 1.78871,4.14098 3.07756,4.14098 0.37265,0 1.16925,-0.59247 1.77022,-1.31659 z m -205.215,-97.515613 c -2.40033,-0.462262 -4.88982,0.607282 -4.16045,1.78743 0.37564,0.607804 1.58953,0.518078 3.25458,-0.240566 2.09885,-0.956304 2.28874,-1.280548 0.90587,-1.546864 z m 18.92609,-5.635994 c 1.06762,-0.807508 1.49113,-1.468196 0.94113,-1.468196 -0.55,0 -1.87351,0.660688 -2.94113,1.468196 C 152.49125,74.339312 152.06774,75 152.61774,75 c 0.55,0 1.87351,-0.660688 2.94113,-1.468197 z m 11.58035,-5.498534 c 1.64023,-1.366456 1.90296,-1.967178 0.86078,-1.968196 -1.60551,-0.0016 -5,2.235516 -5,3.29517 0,1.208401 1.78135,0.637326 4.13922,-1.326974 z M 183.5,60 c 1.13361,-1.252623 1.3538,-2 0.58925,-2 C 182.25146,58 179,59.939141 179,61.035184 179,62.69163 181.6068,62.091958 183.5,60 z m 14.99292,-2.988546 c 0.35034,-0.56686 -0.0511,-0.734507 -0.94098,-0.393011 C 195.81952,57.283234 195.50255,58 196.94098,58 c 0.51754,0 1.21592,-0.444846 1.55194,-0.988546 z m -6.25215,-1.999811 c 2.47226,-1.093596 5.05956,-2.668596 5.74957,-3.5 C 198.68034,50.680239 200.03469,50 201,50 c 0.96531,0 2.31531,-0.675 3,-1.5 1.38443,-1.66814 5,-2.048266 5,-0.52568 0,0.535876 -1.4625,1.717118 -3.25,2.624982 -4.48384,2.277324 -5.82692,3.467217 -5.14996,4.562563 0.34433,0.557136 1.12436,0.481829 1.92936,-0.186266 0.74324,-0.616835 2.39068,-0.976186 3.66097,-0.798559 1.62118,0.226693 2.60387,-0.347718 3.29676,-1.92704 0.54292,-1.2375 1.75386,-2.25 2.69098,-2.25 2.3675,0 3.29978,-1.879386 1.31088,-2.642598 -1.16855,-0.448414 -1.46071,-1.333936 -1.01976,-3.090809 0.3399,-1.354286 0.25662,-2.305795 -0.18508,-2.114465 C 208.63558,43.732587 190.9751,53.493819 189,55.021657 c -3.19806,2.473855 -2.36863,2.471292 3.24077,-0.01001 z M 220.55,48.052275 C 222.13137,46.474696 231.00562,42 232.55291,42 233.34881,42 234,41.580324 234,41.067388 c 0,-0.512937 0.90653,-1.220335 2.01452,-1.571997 1.10799,-0.351661 1.75643,-1.056985 1.44098,-1.567387 -0.92753,-1.50078 -2.92171,-1.073965 -5.2897,1.132159 -1.53529,1.430334 -2.8759,1.849236 -4.38513,1.370225 -2.12266,-0.673705 -2.10245,-0.751581 0.85872,-3.310163 1.66789,-1.441124 3.86772,-3.102787 4.8885,-3.692585 1.13016,-0.652988 1.44605,-1.325714 0.80775,-1.720201 -0.57652,-0.356311 -5.1273,1.349137 -10.11284,3.789885 -9.48449,4.643277 -12.90146,7.37234 -7.62142,6.087067 7.65236,-1.862748 8.45051,-1.883179 7.80453,-0.199783 C 224.06497,42.273074 223.02018,43 222.08414,43 c -2.7284,0 -5.48506,2.512837 -4.778,4.355392 0.7114,1.853885 1.84086,2.096528 3.24386,0.696883 z m 20.58922,-19.019006 c 3.06844,-2.55627 1.79949,-2.576126 -2.36505,-0.03701 -1.94991,1.188861 -2.61118,1.997774 -1.63495,2 0.90156,0.0021 2.70156,-0.881291 4,-1.962993 z"
       id="path3059"
       inkscape:connector-curvature="0" />
    <path
       style="fill:#2e2b31"
       d="m 136.21065,324.11836 c -1.80915,-0.3401 -3.15915,-1.01932 -3,-1.50937 0.15914,-0.49006 -0.51096,-1.39006 -1.48912,-2 -1.35618,-0.84567 -1.9804,-0.78532 -2.62895,0.25416 -0.46776,0.74974 -1.01745,0.93219 -1.22153,0.40546 -0.63668,-1.6433 -7.62156,-2.27415 -8.84589,-0.79892 -0.99902,1.20374 -2.9279,1.17276 -6.99713,-0.1124 -1.29597,-0.40929 -1.29597,-0.5893 0,-1.50542 1.21485,-0.85878 1.16593,-0.94206 -0.2801,-0.47679 -3.33987,1.07463 -10.70082,-1.1223 -18.388159,-5.48809 -40.208591,-22.8352 -46.46269,-73.12271 -14.387898,-115.68917 3.353383,-4.45028 12.008246,-13.73391 19.23303,-20.6303 l 13.135967,-12.53888 0.15624,-37.82937 c 0.0859,-20.80615 0.50622,-38.395641 0.93397,-39.08776 0.57404,-0.92881 1.18031,-0.683637 2.31482,0.936098 1.37494,1.962996 2.11518,2.126552 7.01713,1.550424 3.09863,-0.364183 6.57223,-1.503189 7.99336,-2.621052 C 131.13872,85.889641 132.96696,85 133.81913,85 c 0.85218,0 3.379,-0.824172 5.61515,-1.831493 10.15205,-4.573209 12.26818,-5.514371 15.31572,-6.811764 4.02184,-1.71217 4.2858,-0.943736 0.37118,1.080592 -1.58335,0.818782 -3.15948,2.220083 -3.50251,3.114001 -0.53951,1.40595 -0.0498,1.529448 3.62882,0.91505 2.33888,-0.390641 5.37751,-1.499434 6.75251,-2.463984 1.375,-0.96455 4.075,-2.088876 6,-2.498503 4.53787,-0.965626 8.03597,-2.781177 10.40735,-5.40152 C 179.45379,69.946071 181.27922,69 182.46386,69 c 1.18463,0 3.02739,-0.660688 4.09501,-1.468197 1.06762,-0.807508 2.8535,-1.482508 3.96862,-1.5 1.11513,-0.01749 2.91513,-0.640523 4,-1.384515 1.08488,-0.743991 2.64751,-1.352657 3.47251,-1.35259 0.825,6.7e-5 3.93788,-1.448984 6.91752,-3.220113 3.04148,-1.807891 6.23565,-3.006288 7.28291,-2.732422 1.2515,0.327273 2.57466,-0.471511 4.02054,-2.427175 C 218.58889,51.712214 220,51.183849 220,53.5 c 0,1.922111 1.72075,1.922111 3.64286,0 1.33333,-1.333333 1.31884,-1.5 -0.13045,-1.5 -2.07178,0 -0.98182,-1.828894 1.83473,-3.078575 1.18407,-0.525365 4.61895,-2.297608 7.63307,-3.938317 C 235.99432,43.342399 238.95261,42 239.55418,42 c 0.60158,0 3.30905,-1.575 6.0166,-3.5 3.19834,-2.273939 6.06243,-3.5 8.17602,-3.5 1.78926,0 3.2532,-0.401139 3.2532,-0.89142 0,-0.490281 1.76173,-1.596323 3.91495,-2.457871 2.15322,-0.861548 4.20477,-2.035409 4.55901,-2.60858 C 265.8282,28.468958 266.93638,28 267.93657,28 c 1.0002,0 2.33373,-0.620768 2.96341,-1.379485 0.62968,-0.758717 2.37228,-1.653327 3.87245,-1.988022 2.75681,-0.61506 7.87726,-4.316134 7.07765,-5.115745 -0.23828,-0.238284 -3.11453,0.206938 -6.39166,0.989382 -8.87435,2.118832 -10.69387,1.931014 -6.6116,-0.682478 2.47851,-1.586764 5.02335,-2.166134 9.80894,-2.233153 5.3799,-0.07534 6.9128,-0.500082 9.15318,-2.536179 1.63696,-1.487692 3.67033,-2.347204 5.19106,-2.194276 5.11728,0.514601 11.75577,3.277932 14.21395,5.916687 5.56036,5.96881 19.80356,33.068111 24.8202,47.223269 1.267,3.575 2.69109,7.012332 3.16466,7.638515 0.47357,0.626183 3.43507,1.450405 6.58111,1.831605 24.70736,2.993737 40.74398,7.360818 50.18766,13.667067 14.64308,9.778272 19.22001,26.040523 13.58308,48.261933 -2.69502,10.6241 -9.12174,25.03014 -16.3202,36.58313 -10.57855,16.97779 -42.91773,50.16944 -70.4488,72.30586 -18.02076,14.48963 -45.76831,32.8004 -77.19188,50.93937 -16.71285,9.64734 -47.34521,22.00348 -58.76167,23.70263 -4.03046,0.59987 -8.90311,1.36986 -10.82811,1.71109 -1.925,0.34123 -6.425,0.79759 -10,1.01412 -3.575,0.21653 -7.8756,0.64599 -9.55688,0.95434 -2.01772,0.37006 -3.46464,0.0693 -4.25635,-0.88462 -1.23856,-1.49238 -5.75741,-1.22878 -6.76056,0.39436 -0.29934,0.48433 -0.85519,0.82136 -1.23523,0.74896 -0.38004,-0.0724 -2.17119,-0.4099 -3.98033,-0.75 z M 137,317 c 2.35161,-2.35161 3.14727,-2.54734 2.39593,-0.5894 -0.44524,1.16028 1.02439,1.36315 8.28139,1.14321 5.60954,-0.17002 9.10322,0.13569 9.593,0.8394 0.51426,0.7389 1.42834,0.32208 2.75,-1.25399 1.42715,-1.70189 1.97968,-1.931 1.97968,-0.82087 0,1.25824 1.1432,1.47827 6.25,1.20289 21.69011,-1.16963 56.12991,-13.33745 76.64299,-27.07852 2.41614,-1.61849 5.14448,-3.39272 6.06299,-3.94272 0.9185,-0.55 5.04771,-3.5875 9.17603,-6.75 4.12832,-3.1625 8.04861,-5.75 8.71176,-5.75 0.66315,0 1.60722,-1.05599 2.09792,-2.34665 0.49071,-1.29065 2.44258,-3.08235 4.33749,-3.98154 1.89492,-0.8992 4.01928,-2.32651 4.72082,-3.17181 0.70154,-0.8453 2.67603,-2.22092 4.38776,-3.05692 1.71173,-0.83601 6.26224,-4.46899 10.11224,-8.07329 3.85,-3.6043 8.18297,-7.17034 9.62882,-7.92454 1.44585,-0.75421 2.89423,-2.06292 3.21861,-2.90826 0.32439,-0.84535 1.26855,-1.53699 2.09813,-1.53699 0.82958,0 2.24546,-1.125 3.1464,-2.5 0.90093,-1.375 2.26131,-2.5 3.02305,-2.5 0.76174,0 1.38499,-0.41968 1.38499,-0.93261 0,-0.51294 0.7875,-1.18686 1.75,-1.4976 0.9625,-0.31074 3.55,-2.17779 5.75,-4.14901 2.2,-1.97121 6.19685,-5.45979 8.88189,-7.7524 5.81955,-4.969 17.72995,-16.58127 22.73753,-22.16838 1.9718,-2.2 5.67658,-5.74336 8.23284,-7.87414 2.55626,-2.13078 4.64774,-4.34534 4.64774,-4.92126 0,-0.57592 0.74724,-1.87281 1.66054,-2.88199 2.0687,-2.28589 0.92037,-3.66649 -1.69245,-2.03476 -1.06752,0.66668 -2.6105,1.21215 -3.42884,1.21215 -0.81834,0 -2.1666,1.31249 -2.99614,2.91664 -0.87781,1.6975 -3.91901,4.27374 -7.27568,6.16333 -3.17209,1.78568 -5.94406,3.38732 -6.15993,3.5592 -0.21588,0.17187 0.19255,1.01744 0.90762,1.87905 1.56423,1.88478 1.14103,2.31953 -6.01512,6.17939 -8.53459,4.60336 -9.99863,5.66916 -10.01803,7.29294 -0.0246,2.05893 -7.06386,7.75291 -10.60366,8.57716 -1.58307,0.36862 -3.96582,1.35121 -5.295,2.18353 -2.18963,1.37112 -2.53448,1.35224 -3.67026,-0.20103 -1.1772,-1.60992 -1.53253,-1.59095 -5.8333,0.31149 -2.51886,1.11421 -4.57975,2.44866 -4.57975,2.96544 0,0.51678 -0.9,1.17495 -2,1.46261 -1.1,0.28766 -2,0.97301 -2,1.52301 0,0.55 0.9,0.76465 2,0.47699 1.1,-0.28766 2,-0.92053 2,-1.40638 0,-0.48585 1.125,-0.88337 2.5,-0.88337 1.375,0 2.5,0.47656 2.5,1.05902 0,0.58246 -0.42362,0.7972 -0.94138,0.47721 -0.51777,-0.32 -0.85527,0.66594 -0.75,2.19098 0.17273,2.50261 -0.1253,2.77185 -3.05862,2.76312 -3.62562,-0.0108 -4.04988,0.96833 -1.59501,3.68093 1.54835,1.71091 1.53225,1.82775 -0.25,1.81343 -3.15605,-0.0254 -4.85558,-1.71396 -5.02024,-4.98791 -0.16424,-3.26569 -1.38054,-5.26866 -2.05772,-3.38859 -0.21954,0.6095 -1.03052,1.9595 -1.80219,3 -1.13961,1.53662 -1.75529,1.67719 -3.27923,0.74869 -1.19263,-0.72664 -2.4693,-0.8112 -3.50411,-0.23209 -1.50035,0.83964 -1.49671,1.13966 0.0465,3.82856 0.93247,1.62473 1.28976,3.27848 0.80631,3.73209 -0.47747,0.44801 -1.06902,0.25206 -1.31456,-0.43544 -0.24553,-0.6875 -1.14682,-1.25 -2.00285,-1.25 -0.85603,0 -2.11312,-0.76132 -2.79352,-1.69183 -1.1445,-1.56519 -1.70345,-1.48254 -7.46755,1.10423 -3.42675,1.53784 -6.96967,2.91337 -7.87315,3.05674 -1.17273,0.18609 -1.55045,1.07763 -1.32027,3.11629 0.31945,2.82931 0.30333,2.83834 -1.75,0.98011 C 261.93259,244.53401 261,244.17763 261,244.77358 c 0,0.59596 -0.73468,1.81825 -1.63263,2.71619 -1.33261,1.33261 -1.42216,2.09457 -0.4873,4.14637 1.19617,2.62529 0.65313,4.81143 -0.94917,3.82115 -0.51199,-0.31643 -0.9309,-1.39367 -0.9309,-2.39386 0,-1.0002 -0.66968,-2.37432 -1.48817,-3.05361 -1.20726,-1.00194 -1.6081,-0.92253 -2.12355,0.42073 -0.58838,1.5333 -0.77466,1.52975 -2.51797,-0.0479 -2.65118,-2.39929 -3.58994,-0.8709 -1.56774,2.55242 0.93359,1.58044 1.67754,3.70409 1.65323,4.71923 -0.0293,1.22533 -0.67879,0.64532 -1.9322,-1.72558 -1.03841,-1.96421 -2.66411,-4.21421 -3.61266,-5 -1.59595,-1.32209 -1.67225,-1.14887 -1.02248,2.32129 0.56009,2.9912 0.39583,3.75 -0.81176,3.75 -0.83266,0 -1.34199,0.5625 -1.13185,1.25 0.21015,0.6875 0.65058,2.825 0.97874,4.75 l 0.59667,3.5 -3.04406,-4.5 c -1.67423,-2.475 -3.76269,-5.97859 -4.64103,-7.78576 -0.87835,-1.80716 -1.81003,-3.07271 -2.07042,-2.81233 -0.26038,0.26039 0.24131,1.90614 1.11486,3.65722 1.9867,3.98242 1.09674,5.74976 -1.36583,2.71237 -2.31243,-2.85221 -3.36686,-2.00595 -1.64232,1.31809 1.81389,3.49629 2.78823,8.91041 1.60354,8.91041 -0.53625,0 -0.975,-1.13912 -0.975,-2.53138 0,-1.39227 -0.64356,-2.77835 -1.43012,-3.08018 -0.78657,-0.30183 -1.90573,-1.9131 -2.48702,-3.58059 -0.75733,-2.17249 -1.5089,-2.85834 -2.65166,-2.41982 -0.87713,0.33658 -2.00797,0.61197 -2.51299,0.61197 -1.05038,0 -1.25099,3.33389 -0.26022,4.32466 0.3619,0.36189 1.29619,0.12833 2.07622,-0.51903 1.10382,-0.91609 1.61962,-0.85875 2.32669,0.25867 1.42685,2.2549 1.11867,4.21859 -0.5609,3.57407 -1.08369,-0.41585 -1.5,0.10953 -1.5,1.89301 0,3.67698 -1.62557,2.98933 -3.6201,-1.53138 -2.76425,-6.26532 -4.46206,-5.02335 -1.84744,1.35142 0.59903,1.46053 0.36536,1.77555 -1.10674,1.49205 -1.18691,-0.22858 -2.26777,-1.79096 -2.96968,-4.29268 -0.60696,-2.16331 -1.63288,-4.10974 -2.2798,-4.32538 -1.7095,-0.56983 -1.465,0.86574 1.1752,6.90016 2.50115,5.71659 4.1899,14.87443 2.74293,14.87443 -0.47705,0 -1.14345,-1.35 -1.48087,-3 -0.33743,-1.65 -0.88745,-4.33552 -1.22228,-5.96783 -0.33483,-1.63231 -1.23483,-3.48741 -2,-4.12245 C 212.62605,267.27469 212,266.13521 212,265.37756 212,264.6199 211.55,264 211,264 c -1.24636,0 -1.31594,3.26766 -0.0969,4.55 0.8355,0.87886 4.0969,12.44635 4.0969,14.53077 0,0.50558 -0.41045,0.91923 -0.9121,0.91923 -0.50166,0 -1.2334,-1.9125 -1.6261,-4.25 -0.3927,-2.3375 -1.89475,-6.5 -3.3379,-9.25 -2.11628,-4.0327 -2.684,-4.57781 -2.93458,-2.81768 -0.17088,1.20027 0.35305,3.46582 1.16427,5.03455 1.86927,3.61477 3.05548,9.81222 2.1565,11.2668 -1.04608,1.6926 -3.49484,-0.74692 -3.3522,-3.33955 C 206.31236,277.83638 204.33005,273 203.02475,273 c -1.39386,0 -1.2312,1.99923 0.4027,4.94962 0.74612,1.34729 1.14552,2.99962 0.88756,3.67186 -0.25796,0.67223 0.014,2.1248 0.6044,3.22794 1.16553,2.17781 0.42737,5.48293 -1.02419,4.58582 C 203.40285,289.13094 203,287.81008 203,286.5 c 0,-1.31008 -0.45,-2.66008 -1,-3 -0.55,-0.33992 -1,-2.11138 -1,-3.93657 0,-1.8252 -0.675,-3.87874 -1.5,-4.56343 -0.825,-0.68469 -1.5,-2.00378 -1.5,-2.93132 0,-0.92753 -0.59148,-2.49532 -1.31441,-3.48398 -1.12241,-1.53499 -1.22512,-0.98638 -0.70316,3.75563 0.33676,3.05957 1.37603,6.39829 2.3144,7.43517 1.21045,1.33754 1.69397,3.59497 1.67137,7.80324 -0.0291,5.42419 -0.15506,5.75831 -1.5,3.98013 -0.80751,-1.06762 -1.4682,-2.88983 -1.4682,-4.04936 0,-1.15952 -1.34205,-6.36102 -2.98234,-11.55887 -1.64028,-5.19785 -2.99028,-10.16929 -3,-11.04763 -0.0218,-1.96752 -2.76102,-5.18815 -5.76766,-6.78122 -2.06401,-1.09361 -2.25,-0.97571 -2.25,1.42636 0,3.44163 -2.33153,2.70727 -3,-0.94491 l -0.5,-2.73176 -2.25,2.10321 c -1.2375,1.15677 -2.25,2.59079 -2.25,3.18671 0,0.76381 -0.39533,0.7554 -1.33986,-0.0285 -1.5593,-1.2941 -15.10768,-1.84284 -18.41014,-0.74565 -1.27441,0.4234 -2.25,1.56579 -2.25,2.63468 0,1.03794 -1.12047,3.00763 -2.48992,4.37709 -1.48061,1.4806 -2.24796,3.12047 -1.89302,4.04545 C 148.94537,272.30001 148.71583,273 148.10699,273 147.49814,273 147,272.11583 147,271.03518 c 0,-2.24026 -3.74486,-4.69032 -5.0991,-3.33608 -0.51252,0.51252 -0.3774,2.22754 0.32132,4.07868 0.95879,2.54011 0.94331,3.45314 -0.0756,4.45825 -1.03405,1.02007 -1.53078,0.92629 -2.57421,-0.48603 -1.70423,-2.30671 -3.11483,-2.20761 -5.7246,0.40216 -1.80604,1.80604 -1.92666,2.33192 -0.75,3.26997 2.0595,1.64185 4.15058,5.67111 3.33454,6.42525 -0.3884,0.35894 -0.92583,0.0339 -1.19428,-0.72238 -0.63934,-1.80104 -4.27534,-5.4211 -4.85887,-4.83756 -0.60965,0.60965 1.64579,5.7797 3.47791,7.97228 1.24454,1.4894 1.26569,2.14225 0.13766,4.25 C 133.26136,293.8801 131.76889,295 130.676,295 c -1.86067,0 -1.88156,-0.11541 -0.33102,-1.82874 2.43712,-2.69299 2.0533,-4.39287 -1.84501,-8.17126 -2.75121,-2.66658 -3.5,-3.01163 -3.5,-1.61283 0,2.67678 -2.30146,1.42982 -4,-2.16726 -2.09337,-4.43324 -3.0679,-3.99445 -2.3739,1.06887 0.44471,3.24446 0.19655,4.61352 -1.01913,5.62244 -0.8838,0.73352 -1.60694,2.17857 -1.60694,3.21122 0,1.21089 -0.71014,1.87756 -2,1.87756 -2.54132,0 -2.52186,0.8156 0.0857,3.5912 1.68425,1.79281 1.8762,2.61151 0.99729,4.25376 -0.71879,1.34308 -0.74789,2.2441 -0.0857,2.65337 0.55148,0.34084 1.01701,1.83065 1.0345,3.31069 0.0175,1.48004 0.67843,3.54525 1.46875,4.58936 1.18814,1.5697 1.70207,1.67835 2.96819,0.62756 1.27733,-1.06009 1.53126,-0.97608 1.53126,0.5066 0,1.65861 0.12226,1.66679 1.82874,0.12245 2.27692,-2.06059 3.17126,-2.09545 3.17126,-0.12361 0,0.84227 0.675,1.79041 1.5,2.10699 0.825,0.31659 1.5,1.16947 1.5,1.89529 0,1.1395 1.38948,1.90791 4.25,2.35034 0.4125,0.0638 1.65,-0.784 2.75,-1.884 z m 27,-2 c 0,-0.55 0.45,-1 1,-1 0.55,0 1,0.45 1,1 0,0.55 -0.45,1 -1,1 -0.55,0 -1,-0.45 -1,-1 z m 13,-2 c 0,-0.55 0.45,-1 1,-1 0.55,0 1,0.45 1,1 0,0.55 -0.45,1 -1,1 -0.55,0 -1,-0.45 -1,-1 z m -0.3125,-4.64583 c -1.37384,-1.37385 -0.66124,-3.49576 1.0625,-3.1638 0.9625,0.18536 1.75,0.96836 1.75,1.73999 0,1.57886 -1.76429,2.47201 -2.8125,1.42381 z M 130,307 c 0,-0.55 0.675,-1 1.5,-1 0.825,0 1.5,0.45 1.5,1 0,0.55 -0.675,1 -1.5,1 -0.825,0 -1.5,-0.45 -1.5,-1 z m 11.53542,0.0573 c -0.3594,-0.58152 -0.5144,-1.08604 -0.34444,-1.12115 3.46637,-0.71608 6.83023,-0.49629 6.52768,0.42651 -0.49221,1.50124 -5.34761,2.04671 -6.18324,0.69464 z m 23.65625,-0.13231 c 0.19708,-0.59125 0.78583,-1.075 1.30833,-1.075 0.5225,0 1.11125,0.48375 1.30833,1.075 0.19709,0.59125 -0.39166,1.075 -1.30833,1.075 -0.91667,0 -1.50542,-0.48375 -1.30833,-1.075 z M 171,306.44098 c 0,-0.85746 0.45,-1.2809 1,-0.94098 0.55,0.33992 1,1.04148 1,1.55902 0,0.51754 -0.45,0.94098 -1,0.94098 -0.55,0 -1,-0.70156 -1,-1.55902 z M 181.55534,301.25 c -0.37271,-3.7125 -0.92236,-7.59074 -1.22144,-8.61831 -0.37161,-1.27678 -0.11478,-1.7258 0.81116,-1.41818 0.7692,0.25554 1.61991,2.57625 1.96788,5.36831 0.33711,2.705 0.93537,6.38068 1.32945,8.16818 0.55385,2.51216 0.38439,3.25 -0.74644,3.25 -1.07252,0 -1.64381,-1.80143 -2.14061,-6.75 z m -63.09136,0.5 c -0.38221,-1.7875 -1.06722,-3.71509 -1.52225,-4.28354 -0.45503,-0.56844 -0.4289,-1.6782 0.0581,-2.46611 0.68837,-1.11381 1.14781,-0.77258 2.06477,1.53353 1.46573,3.68627 1.97309,8.46612 0.89863,8.46612 -0.44235,0 -1.117,-1.4625 -1.49921,-3.25 z M 188,302.94098 c 0,-1.13246 0.45,-1.7809 1,-1.44098 0.55,0.33992 1,1.26648 1,2.05902 0,0.79254 -0.45,1.44098 -1,1.44098 -0.55,0 -1,-0.92656 -1,-2.05902 z m 6.07895,0.47569 c 0.048,-1.16495 0.28494,-1.4019 0.60416,-0.60417 0.28887,0.72187 0.25335,1.58438 -0.0789,1.91667 -0.3323,0.33229 -0.56864,-0.25834 -0.52522,-1.3125 z m -18.43947,-2.11052 C 174.68647,300.35313 174.86691,298 175.89301,298 c 1.22681,0 2.21165,2.81728 1.2028,3.44079 -0.44927,0.27766 -1.10462,0.21707 -1.45633,-0.13464 z m 11.92401,-2.49277 c -1.76169,-5.47789 -3.4837,-14.85774 -2.97232,-16.19036 0.736,-1.91798 2.36184,-2.15879 2.51846,-0.37302 0.40189,4.58246 0.86101,7.84604 1.6908,12.01862 0.54375,2.73426 0.57228,5.00103 0.0669,5.31339 -0.48479,0.29961 -1.07151,-0.0463 -1.30382,-0.76863 z m 11.88266,0.0995 c -0.36954,-0.59793 -0.17109,-1.58793 0.44098,-2.2 C 200.70429,295.89571 201,296.18458 201,297.8 c 0,2.41451 -0.51946,2.78655 -1.55385,1.11287 z m -5.3672,-1.4962 c 0.048,-1.16495 0.28494,-1.4019 0.60416,-0.60417 0.28887,0.72187 0.25335,1.58438 -0.0789,1.91667 -0.3323,0.33229 -0.56864,-0.25834 -0.52522,-1.3125 z m -71.77153,-2.67779 C 121.10968,292.87678 119,288.82432 119,288.38569 c 0,-1.11773 2.8702,-0.16632 3.36163,1.11431 0.31658,0.825 1.32097,1.5 2.23199,1.5 1.30709,0 1.52985,-0.63263 1.05638,-3 -0.62305,-3.11527 0.35081,-3.91206 2.1389,-1.75 1.58031,1.91083 0.27303,6.4794 -2.34489,8.19473 -1.82085,1.19306 -2.51644,1.2583 -3.13659,0.29415 z M 142,293.62244 c 0,-0.20765 0.675,-0.93775 1.5,-1.62244 1.22851,-1.01957 1.5,-0.95124 1.5,0.37756 0,0.89234 -0.675,1.62244 -1.5,1.62244 -0.825,0 -1.5,-0.1699 -1.5,-0.37756 z M 174.5,293 c -0.39915,-0.64585 -0.27574,-1.62426 0.27426,-2.17426 0.66667,-0.66667 1.24192,-0.60858 1.72574,0.17426 0.39915,0.64585 0.27574,1.62426 -0.27426,2.17426 -0.66667,0.66667 -1.24192,0.60858 -1.72574,-0.17426 z m 17.97247,-0.0445 c -0.35505,-0.57449 -0.81293,-2.48699 -1.01749,-4.25 -0.20457,-1.763 -1.238,-7.25546 -2.29651,-12.20546 -1.80339,-8.43329 -2.05771,-12.18988 -0.53437,-7.89313 0.36915,1.04122 1.35702,3.46813 2.19528,5.39313 0.83826,1.925 1.69517,5.3 1.90425,7.5 0.20908,2.2 0.8068,4.4275 1.32826,4.95 1.22973,1.23218 1.23569,7.55 0.007,7.55 -0.51754,0 -1.23149,-0.47004 -1.58655,-1.04454 z M 157,291.90638 C 157,291.40787 157.9,291 159,291 c 1.1,0 2,0.17252 2,0.38337 0,0.21085 -0.9,0.61872 -2,0.90638 -1.1,0.28766 -2,0.11514 -2,-0.38337 z M 152,291 c 0,-0.55 0.47656,-1 1.05902,-1 0.58246,0 0.7809,0.45 0.44098,1 -0.33992,0.55 -0.81648,1 -1.05902,1 C 152.19844,292 152,291.55 152,291 z m 57.74097,-0.33179 c -1.15951,-2.86648 -0.95139,-5.27863 0.34369,-3.98355 0.59657,0.59657 0.93001,2.14907 0.74097,3.45 -0.30261,2.08262 -0.43226,2.14639 -1.08466,0.53355 z m -30.0118,-5.27238 c -0.40105,-0.40104 -0.70065,-1.89166 -0.66578,-3.3125 l 0.0634,-2.58333 0.96518,2.41432 c 1.0401,2.60175 0.82469,4.66899 -0.36278,3.48151 z M 157,283.53138 c 0,-0.89459 0.58629,-1.24363 1.5,-0.89301 0.825,0.31659 1.5,0.97746 1.5,1.46862 0,0.49115 -0.675,0.89301 -1.5,0.89301 -0.825,0 -1.5,-0.66088 -1.5,-1.46862 z M 238,281 c 0,-1.1 0.45,-2 1,-2 0.55,0 1,0.9 1,2 0,1.1 -0.45,2 -1,2 -0.55,0 -1,-0.9 -1,-2 z m -100,-1.05902 c 0,-0.58246 0.45,-0.7809 1,-0.44098 0.55,0.33992 1,0.81648 1,1.05902 0,0.24254 -0.45,0.44098 -1,0.44098 -0.55,0 -1,-0.47656 -1,-1.05902 z m 110,-1.5 c 0,-0.85746 0.45,-1.2809 1,-0.94098 0.55,0.33992 1,1.04148 1,1.55902 0,0.51754 -0.45,0.94098 -1,0.94098 -0.55,0 -1,-0.70156 -1,-1.55902 z m -69.34934,-0.90895 c -0.30982,-0.80739 -0.13297,-1.73395 0.39301,-2.05902 0.52598,-0.32508 0.95633,0.33551 0.95633,1.46797 0,2.41457 -0.55611,2.65816 -1.34934,0.59105 z M 173,276.5 c 0,-0.825 0.45,-1.5 1,-1.5 0.55,0 1,0.675 1,1.5 0,0.825 -0.45,1.5 -1,1.5 -0.55,0 -1,-0.675 -1,-1.5 z m -22.29876,-0.1321 C 149.29506,274.96173 150.05948,274 152.58333,274 c 1.62198,0 2.42845,0.46517 2.16714,1.25 -0.48136,1.44569 -3.02046,2.14668 -4.04923,1.1179 z m 32.28345,-2.6179 c -0.0198,-4.20434 -1.591,-6.86098 -2.8772,-4.8649 -0.70994,1.10175 -1.1411,0.92062 -2.10767,-0.88543 -1.15879,-2.16522 -1.0826,-2.23778 1.64252,-1.56434 3.73926,0.92406 4.02752,1.29994 4.84264,6.31467 0.4582,2.81892 0.32449,4.25 -0.39708,4.25 -0.59835,0 -1.09479,-1.4625 -1.10321,-3.25 z m -22.29084,1.61052 C 159.89492,274.56159 160.79804,273 162.05902,273 c 0.51754,0 0.94098,0.675 0.94098,1.5 0,1.54641 -1.17996,1.9867 -2.30615,0.86052 z M 221.25,274.05273 c -0.6875,-1.11407 -1.25,-2.80313 -1.25,-3.75345 0,-1.57766 0.13789,-1.58996 1.58632,-0.14153 0.87248,0.87247 1.43498,2.56153 1.25,3.75345 -0.33415,2.15316 -0.34438,2.15408 -1.58632,0.14153 z M 226,273 c 0,-1.86667 0.26667,-2.13333 1.2,-1.2 0.93333,0.93333 0.93333,1.46667 0,2.4 -0.93333,0.93333 -1.2,0.66667 -1.2,-1.2 z m 10,0.44098 c 0,-0.85746 0.45,-1.2809 1,-0.94098 0.55,0.33992 1,1.04148 1,1.55902 0,0.51754 -0.45,0.94098 -1,0.94098 -0.55,0 -1,-0.70156 -1,-1.55902 z m -62.92971,-4.13196 C 173.03163,267.55398 173.45,265.83992 174,265.5 c 1.19936,-0.74125 1.19936,2.20893 0,5 -0.72445,1.68588 -0.87047,1.49883 -0.92971,-1.19098 z M 230,268 c 0,-1.86667 0.26667,-2.13333 1.2,-1.2 0.93333,0.93333 0.93333,1.46667 0,2.4 -0.93333,0.93333 -1.2,0.66667 -1.2,-1.2 z m 20,1 c 0,-0.55 0.45,-1 1,-1 0.55,0 1,0.45 1,1 0,0.55 -0.45,1 -1,1 -0.55,0 -1,-0.45 -1,-1 z m -93.48992,-1.01631 c 0.34546,-0.55897 1.04702,-0.75742 1.55902,-0.44098 1.38704,0.85723 1.12841,1.45729 -0.62812,1.45729 -0.85746,0 -1.27636,-0.45734 -0.9309,-1.01631 z m 12.13838,-0.45741 c -0.30861,-0.80423 -0.17792,-1.69906 0.29043,-1.98851 0.46835,-0.28946 1.10404,0.13172 1.41265,0.93595 0.30861,0.80423 0.17792,1.69906 -0.29043,1.98851 -0.46835,0.28946 -1.10404,-0.13172 -1.41265,-0.93595 z M 238.26888,266 c -1.16858,-2.82058 -0.77103,-3.90215 0.84157,-2.28955 0.59241,0.59241 0.87845,1.91241 0.63565,2.93333 -0.38234,1.60765 -0.58016,1.52144 -1.47722,-0.64378 z m 15.35466,-0.53866 c -0.96498,-2.51469 -0.68031,-3.16355 0.49853,-1.13634 0.58369,1.00375 0.8506,2.03566 0.59313,2.29313 -0.25747,0.25747 -0.74872,-0.26309 -1.09166,-1.15679 z M 248,263 c 0,-0.55 0.47656,-1 1.05902,-1 0.58246,0 0.7809,0.45 0.44098,1 -0.33992,0.55 -0.81648,1 -1.05902,1 C 248.19844,264 248,263.55 248,263 z m 7.83198,-1.21539 c -1.90185,-1.48523 -3.73637,-8.46159 -1.9318,-7.3463 1.49153,0.92182 4.3038,6.44974 3.89902,7.66409 -0.18477,0.5543 -1.02414,0.41871 -1.96722,-0.31779 z M 260,259.44098 c 0,-0.85746 0.45,-1.2809 1,-0.94098 0.55,0.33992 1,1.04148 1,1.55902 0,0.51754 -0.45,0.94098 -1,0.94098 -0.55,0 -1,-0.70156 -1,-1.55902 z M 264.5,257 c -0.33992,-0.55 -0.14148,-1 0.44098,-1 0.58246,0 1.05902,0.45 1.05902,1 0,0.55 -0.19844,1 -0.44098,1 -0.24254,0 -0.7191,-0.45 -1.05902,-1 z m -3.5,-6.05902 c 0,-0.58246 0.45,-0.7809 1,-0.44098 0.55,0.33992 1,0.81648 1,1.05902 0,0.24254 -0.45,0.44098 -1,0.44098 -0.55,0 -1,-0.47656 -1,-1.05902 z M 292.01531,238.75 c 0.008,-0.6875 0.38565,-1.8338 0.83827,-2.54733 0.6599,-1.04029 1.0702,-0.99943 2.07078,0.20619 0.6863,0.82694 0.95752,1.97324 0.60271,2.54734 -0.90274,1.46067 -3.53029,1.30639 -3.51176,-0.2062 z M 114,308.55902 c 0,-0.24254 -0.45,-0.7191 -1,-1.05902 -0.55,-0.33992 -1,-0.14148 -1,0.44098 0,0.58246 0.45,1.05902 1,1.05902 0.55,0 1,-0.19844 1,-0.44098 z m -2.97033,-7.50358 C 110.42465,299.92495 109.27047,299 108.46482,299 c -2.03402,0 -1.83415,0.97796 0.76536,3.74501 2.44432,2.60187 3.54374,1.5696 1.79949,-1.68957 z M 129,278.44098 c 0,-0.85746 -0.45734,-1.27636 -1.01631,-0.9309 -0.55897,0.34546 -0.75742,1.04702 -0.44098,1.55902 0.85723,1.38704 1.45729,1.12841 1.45729,-0.62812 z m 74,-8.24985 c 0,-0.44488 -0.71174,-1.68238 -1.58164,-2.75 -1.44731,-1.77628 -1.53223,-1.78556 -1,-0.10934 0.3199,1.00748 0.58164,2.24498 0.58164,2.75 0,0.50501 0.45,0.91821 1,0.91821 0.55,0 1,-0.36399 1,-0.80887 z m -8,-7.70309 C 195,260.46825 192.82338,256 191.83948,256 c -1.2016,0 -1.03558,3.4755 0.30675,6.42159 1.16598,2.55905 2.85377,2.59835 2.85377,0.0665 z m 3.53472,-3.42091 C 197.66237,257.38021 196.68511,256 196.36303,256 c -1.02502,0 0.77163,7.46476 1.97875,8.22138 1.82836,1.146 1.93789,-1.77989 0.19294,-5.15425 z M 206,264 c 0,-0.55 -0.47656,-1 -1.05902,-1 -0.58246,0 -0.7809,0.45 -0.44098,1 0.33992,0.55 0.81648,1 1.05902,1 0.24254,0 0.44098,-0.45 0.44098,-1 z m -55.22917,-2.8125 C 150.98854,260.53437 150.45417,260 149.58333,260 148.7125,260 148,260.7125 148,261.58333 c 0,1.76593 2.15276,1.45839 2.77083,-0.39583 z M 204,260 c 0,-0.55 -0.47656,-1 -1.05902,-1 -0.58246,0 -0.7809,0.45 -0.44098,1 0.33992,0.55 0.81648,1 1.05902,1 0.24254,0 0.44098,-0.45 0.44098,-1 z m -58.5,-10 c 0.33992,-0.55 0.14148,-1 -0.44098,-1 -0.58246,0 -1.05902,0.45 -1.05902,1 0,0.55 0.19844,1 0.44098,1 0.24254,0 0.7191,-0.45 1.05902,-1 z m 18.49772,-0.25 c 0.002,-0.77772 -0.33781,-0.85498 -5.74772,-1.30541 -3.38071,-0.28147 -4.56206,1.12553 -1.5,1.78653 2.85896,0.61715 7.24527,0.32598 7.24772,-0.48112 z M 170,249.55902 c 0,-1.05548 -1.91911,-1.49891 -2.48992,-0.57533 -0.34546,0.55897 0.0734,1.01631 0.9309,1.01631 C 169.29844,250 170,249.80156 170,249.55902 z M 174.2,248.8 c -0.93333,-0.93333 -1.46667,-0.93333 -2.4,0 -0.93333,0.93333 -0.66667,1.2 1.2,1.2 1.86667,0 2.13333,-0.26667 1.2,-1.2 z m -38.99753,-21.99753 c -0.53449,-0.53449 -2.0362,-0.78675 -3.33713,-0.56057 l -2.36534,0.41123 2.5,1.05602 c 2.7641,1.16758 4.72232,0.61317 3.20247,-0.90668 z m 10.95115,0.0104 C 147.16913,226.98491 148,226.71006 148,226.2021 c 0,-0.50796 -2.33601,-1.20023 -5.19114,-1.53838 -5.37844,-0.637 -7.88095,-0.0184 -4.01519,0.99252 1.21348,0.31734 2.20633,1.25459 2.20633,2.08279 0,1.28729 0.23997,1.30665 1.65362,0.13342 0.9095,-0.75481 2.4845,-1.23162 3.5,-1.05958 z M 133,223.61658 c 0,-0.76089 -1.125,-1.59848 -2.5,-1.86133 -2.88563,-0.55162 -3.31011,0.67352 -0.75,2.16465 2.40469,1.4006 3.25,1.32171 3.25,-0.30332 z m 3,-6.14796 c 0,-0.84227 0.71273,-1.80489 1.58385,-2.13917 2.59578,-0.99609 -0.59556,-2.42854 -3.87481,-1.73922 C 131.01299,214.15695 128,212.72532 128,210.87756 128,210.3949 128.7125,210 129.58333,210 c 0.87084,0 1.39836,-0.5625 1.17228,-1.25 -0.2274,-0.69152 -2.38685,-1.36621 -4.83333,-1.51011 l -4.42228,-0.2601 2.24193,1.91387 2.24194,1.91386 -3.99194,-0.53543 C 119.79637,209.97761 118,210.10441 118,210.55388 c 0,1.56327 4.35995,5.44612 6.1153,5.44612 0.97166,0 2.04478,0.45 2.3847,1 0.93407,1.51136 2.5,1.19817 2.5,-0.5 0,-2.06937 1.34918,-1.87662 3.5,0.5 2.1614,2.38832 3.5,2.56754 3.5,0.46862 z m 1.54112,-7.53515 c 0.92034,-1.48915 -0.14673,-2.29879 -2.06137,-1.56407 -0.88358,0.33906 -1.32643,1.06965 -0.98412,1.62354 0.81058,1.31154 2.21511,1.28411 3.04549,-0.0595 z M 148,210.28678 c -0.825,-0.30543 -2.0728,-1.00855 -2.77289,-1.5625 -0.95224,-0.75345 -1.11422,-0.59367 -0.64301,0.63428 0.34643,0.90279 1.59423,1.60591 2.77289,1.56249 1.46274,-0.0539 1.66686,-0.25522 0.64301,-0.63427 z m -14,-22.72776 c 0,-0.79254 -0.45,-1.7191 -1,-2.05902 -0.55,-0.33992 -1,0.30852 -1,1.44098 0,1.13246 0.45,2.05902 1,2.05902 0.55,0 1,-0.64844 1,-1.44098 z m -3,-7.61804 C 131,179.42344 130.55,179 130,179 c -0.55,0 -1,0.70156 -1,1.55902 0,0.85746 0.45,1.2809 1,0.94098 0.55,-0.33992 1,-1.04148 1,-1.55902 z m 6,1.61804 c 0,-1.05548 -1.91911,-1.49891 -2.48992,-0.57533 -0.34546,0.55897 0.0734,1.01631 0.9309,1.01631 C 136.29844,182 137,181.80156 137,181.55902 z M 342.70826,176.75 c 0.52424,-0.6875 2.44429,-7.0333 4.26679,-14.10178 2.69495,-10.45224 3.06221,-13.00716 1.96703,-13.68401 -0.74062,-0.45774 -1.72529,-0.5982 -2.18814,-0.31214 -0.46285,0.28606 -1.55569,-0.0726 -2.42854,-0.79697 -1.36572,-1.13345 -2.07122,-0.76204 -5.06015,2.66391 -4.27055,4.89495 -5.31872,7.42853 -4.06334,9.82172 0.64228,1.22442 0.58349,2.76314 -0.17558,4.59569 -0.90117,2.17562 -0.82898,3.47087 0.34326,6.15927 0.81643,1.87237 1.72813,4.19181 2.02602,5.15431 0.62629,2.02356 3.9149,2.33307 5.31265,0.5 z M 139.5,87 c 0.78218,-1.265597 -0.54163,-1.265597 -2.5,0 -1.29269,0.835399 -1.26629,0.971491 0.19098,0.984687 C 138.12102,87.993109 139.16008,87.55 139.5,87 z m -8.49164,-9.937166 c -1.18796,-0.780125 -1.23886,-1.232339 -0.25,-2.221193 C 131.44126,74.158738 132,72.655 132,71.5 c 0,-1.155 0.5625,-2.69625 1.25,-3.425 1,-1.06 1,-1.416667 0,-1.783333 -0.6875,-0.252084 -1.25,-1.94705 -1.25,-3.766592 0,-2.686957 0.46536,-3.425057 2.47792,-3.930176 1.475,-0.370203 3.39751,-2.232291 4.75,-4.600706 1.30697,-2.288724 3.02876,-3.98206 4.05346,-3.986491 0.97977,-0.0042 2.07194,-0.795202 2.42706,-1.757702 0.35512,-0.9625 1.1285,-2.073562 1.71862,-2.469027 0.59012,-0.395464 1.07294,-1.705722 1.07294,-2.911683 0,-1.55504 0.87239,-2.473448 3,-3.158254 1.65,-0.531079 3.929,-1.808321 5.06445,-2.838317 C 157.6999,35.842724 159.14004,35 159.76476,35 c 0.62472,0 1.49572,-0.6406 1.93555,-1.423556 1.00202,-1.783734 10.33664,-6.685223 16.29969,-8.558758 2.475,-0.777622 5.4,-1.976976 6.5,-2.66523 1.1,-0.688255 4.025,-1.539413 6.5,-1.891463 2.475,-0.352051 5.85,-1.036432 7.5,-1.520847 6.91944,-2.031446 35.47596,-4.662246 59,-5.435437 15.36681,-0.505078 16.75983,-0.415461 14.5,0.932831 -1.375,0.820374 -3.24905,1.507535 -4.16456,1.527025 -1.90813,0.04062 -14.54613,4.628306 -26.50887,9.622916 C 236.83118,27.464366 232.39594,29 231.47047,29 c -0.92546,0 -3.32242,1.286378 -5.32657,2.858618 -2.00414,1.572239 -5.32513,3.405069 -7.37997,4.072955 -2.05484,0.667886 -3.97343,1.598382 -4.26352,2.06777 -0.47809,0.77356 -10.87795,6.677047 -22.50041,12.772368 -2.475,1.297997 -6.525,3.500202 -9,4.893789 -4.08612,2.300754 -11.93764,6.515283 -26.93302,14.457085 C 153.07882,71.705163 150.07863,73 149.39989,73 c -0.67874,0 -3.27814,0.876185 -5.77643,1.947079 -5.89989,2.528988 -10.74773,3.342048 -12.6151,2.115755 z M 119,70.118034 c 0,-0.55 0.45,-1.278115 1,-1.618034 0.55,-0.339919 1,-0.168034 1,0.381966 0,0.55 -0.45,1.278115 -1,1.618034 -0.55,0.339919 -1,0.168034 -1,-0.381966 z M 125,60 c 1.9051,-3.734306 4,-5.298374 4,-2.986431 0,1.327972 -2.2265,5.285495 -3.5,6.221118 C 123.24441,64.891843 123.07232,63.778563 125,60 z"
       id="path3057"
       inkscape:connector-curvature="0" />
    <path
       style="fill:#211d24"
       d="m 173,319.11229 c 0.825,-0.51068 3.525,-1.18332 6,-1.49475 6.35419,-0.79956 23.80284,-5.77639 34.9609,-9.9718 5.20349,-1.95651 9.65648,-3.3617 9.89553,-3.12265 0.62907,0.62908 -16.73504,8.47691 -18.756,8.47691 -0.93524,0 -2.12793,0.37644 -2.65043,0.83654 -3.08704,2.71834 -11.73297,5.0257 -20.95,5.59097 -6.30801,0.38687 -9.4462,0.27049 -8.5,-0.31522 z M 85.424142,306.48662 C 81.22034,304.64124 69.610952,291.15326 65.901517,283.80491 57.381171,266.9262 56.69454,244.25514 64.10391,224.45182 c 6.527429,-17.44611 20.336253,-35.98051 38.16284,-51.22269 l 8.50369,-7.27086 0.64845,-19.22914 c 0.35665,-10.57602 0.91147,-21.44618 1.23293,-24.1559 l 0.58448,-4.92676 1.40634,3.92676 c 0.85555,2.38884 1.1771,5.59015 0.82102,8.17383 -0.32193,2.33589 -0.22045,4.81089 0.22551,5.5 0.44596,0.68912 0.93645,3.72794 1.08998,6.75294 0.15354,3.025 0.37854,7.525 0.5,10 0.12147,2.475 0.58117,5.05645 1.02156,5.73656 0.4404,0.68012 0.35794,2.84018 -0.18323,4.80014 -0.9212,3.3363 -0.81283,3.63026 1.69928,4.60929 l 2.68324,1.04572 -2.2278,1.51137 c -1.60887,1.09149 -1.99173,1.96777 -1.37811,3.15415 1.17671,2.27502 1.99441,12.14277 1.00623,12.14277 -1.09936,0 -0.0445,9.51967 1.63976,14.79835 1.6248,5.0923 0.51823,6.11483 -4.66282,4.30871 l -3.14777,-1.09732 0.75713,4.74513 c 0.41643,2.60982 0.82746,6.48264 0.9134,8.60627 0.10743,2.65455 0.85059,4.42337 2.37812,5.66029 2.59647,2.10249 2.80878,2.97857 0.72186,2.97857 -2.14922,0 -1.84939,1.64187 0.61504,3.36803 1.34637,0.94303 2.43518,3.23509 2.99589,6.3067 0.61872,3.38933 1.70044,5.49336 3.63496,7.0703 l 2.75411,2.24504 -2.87244,0.005 c -2.55882,0.004 -2.7226,0.18566 -1.5,1.65987 0.75484,0.9102 2.72244,2.29125 4.37244,3.06899 1.65,0.77775 4.17098,2.05071 5.60217,2.82881 1.4312,0.7781 3.60571,1.56788 4.83224,1.75506 2.34276,0.35753 4.02448,2.25284 4.05028,4.56468 0.0123,1.10147 -0.27834,1.12874 -1.47196,0.13813 -0.81799,-0.67888 -2.18835,-0.96529 -3.04523,-0.63647 -0.85688,0.32881 -3.84225,-0.59657 -6.63415,-2.05642 -4.07543,-2.13099 -5.39726,-2.42269 -6.70477,-1.47961 -0.89572,0.64606 -2.30358,1.43006 -3.12858,1.74221 -4.3784,1.65665 -6.52764,3.50048 -6.81642,5.84778 -0.22178,1.80264 0.15211,2.57194 1.25,2.57194 0.86153,0 1.56642,0.73125 1.56642,1.625 0,1.29952 -0.65097,1.49528 -3.25,0.97736 -1.7875,-0.35621 -3.4,-1.08746 -3.58333,-1.625 -0.18334,-0.53759 -0.99123,-0.9774 -1.79532,-0.9774 -1.1415,0 -1.31141,0.80258 -0.77511,3.66131 0.57374,3.05831 0.43199,3.5635 -0.86073,3.06744 -1.62298,-0.6228 -5.52693,2.81317 -4.43593,3.90416 0.34136,0.34136 -0.0364,1.89126 -0.83946,3.44421 -1.93298,3.73797 -1.84484,4.58901 0.53988,5.21263 2.28536,0.59763 2.74651,3.71025 0.54969,3.71025 -0.79767,0 -1.84397,-0.70343 -2.32511,-1.56319 -0.79332,-1.41758 -0.99565,-1.41758 -2.172139,0 C 98.338909,286.29657 97.000211,287 96.077555,287 c -0.922655,0 -2.234746,0.55719 -2.915758,1.2382 -0.984271,0.98427 -1.765103,0.56495 -3.807429,-2.04466 -1.413073,-1.80557 -3.308382,-3.16149 -4.211796,-3.01316 C 82.774758,283.56916 81,282.18134 81,279.94098 81,278.70886 81.685696,278 82.877555,278 c 3.254521,0 4.40146,-2.43752 2.118914,-4.5032 C 83.898411,272.50308 83,270.94977 83,270.04501 c 0,-0.90475 -0.431262,-2.07627 -0.958359,-2.60337 -0.54705,-0.54705 -0.593028,-1.54948 -0.107131,-2.33568 0.66144,-1.07023 1.530393,-0.62244 3.897363,2.00836 2.982129,3.31454 3.077504,3.34366 4.539049,1.38568 1.358584,-1.82004 1.280512,-2.22495 -0.867681,-4.5 -2.633276,-2.78878 -4.0414,-7.1552 -3.099255,-9.61039 0.506552,-1.32005 0.895771,-1.38572 2.132013,-0.35973 1.739951,1.44403 1.958431,1.30569 2.931357,-1.85611 0.661641,-2.1502 0.462931,-2.30155 -2.625772,-2 C 86.392961,250.41282 85.5,250.09916 85.5,249 c 0,-0.92657 0.951898,-1.50737 2.490016,-1.51927 3.139572,-0.0243 3.953247,-3.04657 1.066854,-3.96268 C 85.454146,242.37459 86.809523,237 90.700608,237 c 1.645627,0 2.663519,-0.67642 3.009643,-2 0.289465,-1.10692 1.364016,-2 2.40638,-2 2.769987,0 2.292928,-1.8591 -0.667739,-2.60218 -1.845012,-0.46307 -2.94333,-0.12237 -3.968197,1.23094 -1.335548,1.76357 -1.418918,1.7157 -1.448892,-0.83197 -0.02665,-2.26479 0.718641,-3.03516 4.595315,-4.75 5.322351,-2.35432 6.252692,-2.5266 4.572882,-0.84679 -1.395648,1.39565 -1.572039,2.8 -0.35169,2.8 0.466571,0 1.55537,-1.8 2.41955,-4 1.11137,-2.82927 2.16289,-4 3.59268,-4 1.11178,0 2.34251,-0.51953 2.73495,-1.15451 0.45139,-0.73036 0.27329,-0.88242 -0.48479,-0.41391 -0.65907,0.40733 -1.79944,0.24171 -2.53415,-0.36805 -0.99559,-0.82627 -2.19432,-0.67774 -4.706199,0.58311 -6.191705,3.10795 -6.604362,3.21935 -7.735428,2.08828 -0.828984,-0.82898 -1.892736,-0.38307 -4.075949,1.70858 -2.311045,2.21412 -2.834826,3.42724 -2.405849,5.57213 0.587672,2.93835 -1.06241,4.96613 -2.016955,2.47863 C 83.3208,229.67242 82.607792,229 82.051709,229 c -3.120479,0 -8.066878,18.23462 -5.996031,22.10403 1.169204,2.18468 0.836499,10.11236 -0.463857,11.05275 -0.96241,0.69599 1.761623,7.32559 3.434939,8.35976 C 80.647406,271.51815 80.202023,277 78.5,277 c -1.738094,0 -1.908129,1.79634 -0.516501,5.4566 0.661231,1.73917 1.983572,2.78681 4.035516,3.1972 2.940618,0.58813 5.807372,3.85315 4.516527,5.14399 -0.344574,0.34458 -1.506034,0.0772 -2.58102,-0.59412 C 82.21298,289.11606 82,289.25256 82,291.45634 c 0,1.44984 0.827607,2.91621 2,3.54366 1.1,0.5887 2.018288,1.61703 2.040641,2.28518 0.02235,0.66815 1.372352,2.77282 3,4.67705 4.847491,5.67119 3.327565,7.57268 -3.616499,4.52439 z M 76,269.69113 c 0,-0.71988 -0.660688,-2.18238 -1.468197,-3.25 -1.413622,-1.86898 -1.469378,-1.84511 -1.5,0.6422 -0.01749,1.42084 0.268197,2.88334 0.634864,3.25 C 74.763446,271.43011 76,271.08978 76,269.69113 z M 73.307137,253.50524 C 72.994285,251.57736 72.355768,250 71.88821,250 c -1.380197,0 -2.161099,4.73184 -1.426831,8.64582 l 0.681495,3.63268 1.366542,-2.63401 c 0.817058,-1.57488 1.13782,-4.04347 0.797721,-6.13925 z M 95,258.94098 C 95,258.42344 94.1,258 93,258 c -2.206051,0 -2.723375,1.57385 -0.75,2.28172 1.512599,0.54259 2.75,-0.0607 2.75,-1.34074 z m 0.749864,-9.52445 c -0.952958,-0.95296 -2.863492,0.5906 -2.153308,1.7397 0.422119,0.683 0.981465,0.66575 1.699645,-0.0524 0.588756,-0.58876 0.792905,-1.34803 0.453663,-1.68727 z M 96.5,243 c -0.483824,-0.78284 -1.059069,-0.84093 -1.725735,-0.17426 -0.55,0.55 -0.673419,1.52841 -0.274265,2.17426 0.483824,0.78284 1.059069,0.84093 1.725735,0.17426 0.55,-0.55 0.673419,-1.52841 0.274265,-2.17426 z m 2,-6 c 0.339919,-0.55 0.168034,-1 -0.381966,-1 -0.55,0 -1.278115,0.45 -1.618034,1 -0.339919,0.55 -0.168034,1 0.381966,1 0.55,0 1.278115,-0.45 1.618034,-1 z m -1.617965,-20.87613 c 1.310119,-1.00741 2.210119,-2.33415 2,-2.9483 -0.559264,-1.63465 -5.279384,0.93363 -5.696501,3.09955 -0.423981,2.20155 0.696344,2.15571 3.696501,-0.15125 z M 104.5,212 c 0.33992,-0.55 -0.11008,-1 -1,-1 -0.88992,0 -1.33992,0.45 -1,1 0.33992,0.55 0.78992,1 1,1 0.21008,0 0.66008,-0.45 1,-1 z M 230,301.44377 c 0,-0.30593 1.9125,-1.45031 4.25,-2.54308 5.91533,-2.76538 16.39019,-9.40299 21.75,-13.78234 2.475,-2.02225 5.67418,-4.42005 7.10929,-5.32844 1.43512,-0.9084 4.64144,-3.37024 7.12518,-5.47077 2.48373,-2.10053 7.60955,-6.05971 11.3907,-8.79819 3.78116,-2.73847 12.94983,-9.94762 20.37483,-16.02033 7.425,-6.0727 15.525,-12.59609 18,-14.49642 19.37371,-14.87532 57.1541,-52.82147 69.54477,-69.84988 C 393.6778,159.47433 400,148.95778 400,147.76276 c 0,-1.43379 -4.0036,0.65536 -4.0318,2.10387 -0.0391,2.00721 -2.31355,5.13337 -3.73482,5.13337 -0.57538,0 -0.83231,-1.0125 -0.57096,-2.25 0.41864,-1.98224 0.34208,-2.04174 -0.64331,-0.5 -0.61517,0.9625 -1.66128,1.75 -2.32469,1.75 -0.66341,0 -1.80833,1.36031 -2.54427,3.02291 -0.73593,1.6626 -2.75828,3.73897 -4.49411,4.61416 -4.03457,2.0342 -8.65604,6.34546 -8.65604,8.07502 0,0.73585 -1.3852,1.61495 -3.07822,1.95355 -2.06036,0.41208 -3.39793,1.45653 -4.04506,3.15861 -1.04182,2.74018 -17.20941,19.12016 -25.37672,25.71007 -5.29262,4.27043 -9.71783,7.01724 -28.97474,17.98515 -15.37962,8.75958 -26.51533,13.99803 -44.52526,20.94555 -14.45773,5.57722 -39.10681,11.95327 -50,12.93365 -11.10987,0.99988 -20.86813,1.5959 -36.5,2.22937 -8.8,0.35661 -17.35,0.74541 -19,0.864 -1.65,0.11859 -3.55992,0.009 -4.24426,-0.243 -2.9181,-1.07556 0.30854,-2.03165 8.97251,-2.65865 14.37905,-1.0406 46.42589,-5.13671 49.54127,-6.33219 2.07579,-0.79655 -0.74446,-2.37588 -2.99339,-1.67628 -2.85155,0.88707 -16.20171,1.2017 -17.27613,0.40716 -0.55,-0.40673 -4.15,-0.31798 -8,0.19723 -8.58991,1.1495 -23.74116,1.60605 -26.07939,0.78584 -1.37398,-0.48196 -1.08478,-0.86861 1.42829,-1.90956 3.61882,-1.49897 4.06263,-3.01146 1.11021,-3.78353 -3.0637,-0.80118 -1.85237,-2.48131 2.94089,-4.07906 4.82526,-1.60842 8.00667,-0.29079 4.20736,1.74254 -1.15905,0.62031 -2.10736,1.56199 -2.10736,2.09264 0,1.57343 3.012,1.09712 3.65479,-0.57795 0.47271,-1.23188 1.52432,-1.40136 5.21861,-0.84106 2.54463,0.38594 5.3016,0.63338 6.1266,0.54988 0.825,-0.0835 3.4125,-0.1514 5.75,-0.15087 3.12165,7.2e-4 4.25,-0.39941 4.25,-1.5071 C 194,236.67863 193.42513,236 192.72251,236 c -0.70263,0 -2.39013,-0.7875 -3.75,-1.75 -1.5595,-1.10378 -4.50347,-1.79314 -7.97251,-1.86683 -3.025,-0.0643 -8.125,-0.17676 -11.33333,-0.25 -4.1749,-0.0953 -5.71664,-0.48855 -5.42288,-1.38317 0.22574,-0.6875 1.72574,-1.3905 3.33333,-1.56222 1.60758,-0.17172 3.38136,-0.90297 3.94172,-1.625 0.56036,-0.72203 2.32527,-1.31278 3.92201,-1.31278 1.59675,0 3.38827,-0.62223 3.98116,-1.38273 0.5929,-0.7605 2.13626,-1.22945 3.4297,-1.04212 C 185.93382,224.27154 190,223.2225 190,221.98095 190,221.44143 188.2,221 186,221 c -4.21269,0 -4.99035,-0.93319 -2.5,-3 0.825,-0.68469 1.5,-1.86479 1.5,-2.62244 0,-0.79031 1.03089,-1.37756 2.41821,-1.37756 1.33002,0 3.09066,-0.25804 3.91254,-0.57343 0.93456,-0.35862 1.63712,0.10962 1.87553,1.25 0.33663,1.61018 0.53237,1.54914 1.67372,-0.522 1.13884,-2.06657 1.04447,-2.51917 -0.79374,-3.80671 C 191.64706,208.63939 191.35998,207 193.5,207 c 1.89682,0 1.88091,-0.48902 -0.11501,-3.53518 C 191.6018,200.74332 190,200.23614 190,202.39301 c 0,1.50787 -2.90374,3.03659 -3.89156,2.04877 -0.33291,-0.33292 0.1815,-1.18062 1.14313,-1.88378 2.17967,-1.59381 2.27898,-5.14043 0.16664,-5.95101 C 185.08477,195.71156 185,195.77793 185,198.5 c 0,1.375 -0.45,2.5 -1,2.5 -0.55,0 -1,-1.27777 -1,-2.83948 0,-2.11128 0.68931,-3.15356 2.68783,-4.06415 l 2.68783,-1.22466 -2.37502,-1.18585 c -1.33294,-0.66555 -2.73102,-2.56097 -3.18637,-4.3199 -0.44625,-1.72371 -1.93701,-3.87159 -3.31281,-4.77305 -3.33515,-2.18527 -3.15563,-4.0793 0.53141,-5.60653 2.76988,-1.14732 2.89995,-1.40313 1.5,-2.95006 -0.84308,-0.93159 -1.5516,-2.33337 -1.5745,-3.11506 -0.0624,-2.12998 -6.67627,-9.21364 -7.89775,-8.45873 -0.58334,0.36053 -1.06062,-0.0764 -1.06062,-0.9709 0,-1.12169 -0.56859,-1.44594 -1.83222,-1.04488 -1.11645,0.35434 -2.50595,-0.16294 -3.55682,-1.32414 -1.02774,-1.13564 -2.50977,-1.70033 -3.66778,-1.3975 C 160.47092,158.11011 160,157.7203 160,156.11663 160,154.68812 160.63102,154 161.94098,154 c 2.75404,0 3.58153,-1.90607 1.66118,-3.82641 -1.36259,-1.36259 -1.97128,-1.42417 -3.659,-0.37016 C 157.52155,151.31574 156,150.59708 156,147.94098 156,146.72102 155.31463,146 154.15499,146 c -1.01476,0 -2.6595,-0.9 -3.65499,-2 -1.77364,-1.95985 -1.74663,-2 1.34501,-2 2.80916,0 3.15499,-0.31547 3.15499,-2.87803 0,-1.78388 -0.77671,-3.39961 -2.04304,-4.25 -1.48246,-0.99552 -2.09983,-2.60672 -2.25,-5.87197 -0.18654,-4.05589 0.004,-4.47839 1.93452,-4.28102 2.56816,0.26262 3.90883,-3.35097 2.06673,-5.57057 -0.66445,-0.80061 -1.0603,-2.32806 -0.87966,-3.39434 0.25761,-1.52055 -0.091,-1.80556 -1.61614,-1.32149 -1.62743,0.51653 -1.86952,0.22452 -1.48433,-1.79048 0.25314,-1.32422 -0.0321,-2.71197 -0.63391,-3.0839 -1.80095,-1.11305 -1.23837,-6.11773 0.90583,-8.0582 2.24561,-2.03225 2.59049,-5.581618 0.8181,-8.41966 -0.9211,-1.474924 -1.6934,-1.698048 -3.5,-1.011182 C 146.87612,92.6174 146,92.581907 146,91.975249 146,91.438862 146.63462,91 147.41026,91 149.1576,91 157,85.947993 157,84.822368 157,84.370066 157.73438,84 158.63197,84 c 0.89758,0 3.03508,-0.851457 4.75,-1.892126 1.71491,-1.04067 4.65554,-2.217899 6.53471,-2.616066 1.87918,-0.398166 4.80418,-1.570027 6.5,-2.604135 1.69583,-1.034108 3.82268,-1.881879 4.72633,-1.883935 0.90366,-0.0021 1.89264,-0.654262 2.19774,-1.449347 0.39404,-1.026843 1.52478,-1.288194 3.90338,-0.9022 2.35818,0.38268 3.74087,0.07081 4.6747,-1.05439 C 192.64816,70.71901 194.06323,70 195.06343,70 c 1.00019,0 2.07636,-0.41717 2.39148,-0.927045 0.31512,-0.509874 2.25418,-1.472337 4.30902,-2.138805 2.05484,-0.666469 4.97326,-2.079721 6.48538,-3.140561 1.62211,-1.138 3.53509,-1.679406 4.66585,-1.320517 1.05409,0.334555 2.20595,0.139978 2.5597,-0.432395 C 215.82861,61.468305 217.06444,61 218.22116,61 c 1.15672,0 3.95637,-1.086077 6.22146,-2.413504 2.26508,-1.327427 5.79212,-2.727508 7.83786,-3.111291 C 234.70914,55.019585 236,54.229136 236,53.197579 c 0,-1.371828 0.16458,-1.355052 1.25,0.127418 1.14866,1.568853 1.68268,1.422211 6.58728,-1.80887 C 246.77279,49.582257 249.54127,48 249.98946,48 c 0.44819,0 1.27995,-1.334083 1.84836,-2.964629 0.72162,-2.070039 2.38696,-3.600841 5.51886,-5.073005 2.46695,-1.159606 4.73179,-2.750523 5.03296,-3.53537 C 262.69082,35.642148 263.76716,35 264.78152,35 c 1.01437,0 3.11779,-1.329239 4.67428,-2.953865 3.41271,-3.562097 9.11488,-6.424859 11.20202,-5.623947 0.83753,0.321391 2.26284,-0.258672 3.18001,-1.294181 1.04627,-1.181265 4.81175,-2.522606 10.16217,-3.61997 4.675,-0.958837 9.07094,-2.202502 9.76876,-2.7637 2.07455,-1.668398 4.76085,1.640006 12.75796,15.712478 7.62733,13.421763 14.50781,28.243977 16.43751,35.410349 1.29476,4.808385 2.01824,5.078982 20.53577,7.680867 33.83324,4.753884 49.12304,14.85104 53.3932,35.260079 2.13496,10.20395 -1.9057,29.01514 -9.82772,45.75259 -8.9175,18.84069 -16.07842,28.18787 -40.26025,52.55181 -29.92039,30.14573 -59.12967,52.61307 -97.80523,75.23031 -25.24041,14.76045 -29,16.71815 -29,15.10095 z m 29,-65.59559 c 0,-0.50746 -0.89508,-0.43952 -2,0.15182 -1.1,0.5887 -2,1.23741 -2,1.44156 0,0.20416 0.9,0.13585 2,-0.15181 1.1,-0.28766 2,-0.93636 2,-1.44157 z m 20.77416,-7.67066 c 0.42205,-1.26615 -7.85787,1.54502 -9.6158,3.26473 -0.91427,0.89439 0.35164,0.73923 3.97406,-0.48708 2.92364,-0.98975 5.46242,-2.23969 5.64174,-2.77765 z M 184,226.60699 c 0,-0.94863 -2.99338,-1.42672 -3.52699,-0.56332 C 180.14793,226.56965 180.80852,227 181.94098,227 183.07344,227 184,226.82314 184,226.60699 z M 342.7291,177.8709 c 1.7858,-1.7858 7.84595,-27.70034 6.73094,-28.78304 -0.52802,-0.51273 -2.5912,-1.23176 -4.58485,-1.59785 -3.45022,-0.63356 -3.78737,-0.43926 -7,4.03403 -2.9001,4.03812 -3.39205,5.56364 -3.49495,10.8378 -0.22431,11.49692 4.1798,19.67812 8.34886,15.50906 z M 171,153 c 0,-0.55 -0.45,-1 -1,-1 -0.55,0 -1,0.45 -1,1 0,0.55 0.45,1 1,1 0.55,0 1,-0.45 1,-1 z m 3,0 c 0,-0.55 -0.45,-1 -1,-1 -0.55,0 -1,0.45 -1,1 0,0.55 0.45,1 1,1 0.55,0 1,-0.45 1,-1 z m 37.33685,-2.05033 c 2.04418,-1.60795 3.03,-1.8237 4.56912,-1 2.70729,1.4489 6.22975,1.26246 8.49135,-0.44944 1.04353,-0.78989 2.27911,-1.2002 2.74575,-0.91181 0.46663,0.2884 1.38049,-0.64341 2.0308,-2.07067 0.69261,-1.52012 1.72992,-2.37191 2.50425,-2.05639 0.72703,0.29625 1.88751,0.76982 2.57884,1.05237 0.69133,0.28255 1.70477,-0.50495 2.25208,-1.75 0.67846,-1.54338 1.78999,-2.22656 3.49304,-2.14693 1.37386,0.0642 2.81657,-0.38182 3.20604,-0.99125 0.38947,-0.60944 1.51331,-1.112 2.49742,-1.11681 1.33997,-0.007 1.78994,-0.80394 1.79187,-3.17541 0.003,-3.82855 0.97729,-5.01418 2.84575,-3.4635 1.91949,1.59304 4.57893,-1.34774 2.81446,-3.11221 -1.82091,-1.82091 -1.4095,-4.05675 0.64748,-3.51884 1.29819,0.33949 2.38539,-0.58733 3.87145,-3.30035 1.91668,-3.49917 1.94061,-3.80528 0.3304,-4.22636 -2.10356,-0.5501 -3.68464,-7.43438 -2.0767,-9.04232 1.83846,-1.83846 1.1814,-3.43518 -1.84822,-4.49131 -2.4574,-0.85665 -3.20713,-0.69328 -4.75,1.03508 -1.79444,2.01018 -1.78587,2.03791 0.41797,1.35199 2.49333,-0.77602 3.12642,0.83918 0.83676,2.1348 -0.77728,0.43983 -1.56478,2.14969 -1.75,3.79969 -0.28514,2.54019 -0.73916,2.97376 -2.96215,2.8288 -1.91896,-0.12514 -2.93017,0.49773 -3.75809,2.31482 -0.81024,1.77826 -1.6596,2.31879 -2.98343,1.89862 -1.0642,-0.33776 -2.38774,0.0597 -3.11435,0.93518 -0.695,0.83742 -2.12265,1.52258 -3.17257,1.52258 -1.04992,0 -2.17311,0.68841 -2.49598,1.5298 -0.34967,0.91124 -1.29076,1.30645 -2.32743,0.97742 -0.95722,-0.30381 -2.30903,0.13278 -3.00402,0.9702 -0.72785,0.877 -2.8827,1.52258 -5.08217,1.52258 -3.7131,0 -6.54934,1.96241 -4.04347,2.7977 0.82513,0.27504 0.54604,0.90684 -0.82471,1.86695 -1.13954,0.79817 -2.53163,1.16709 -3.09353,0.81981 -0.56189,-0.34727 -2.3611,-0.0385 -3.99824,0.68618 -2.47354,1.0949 -2.982,1.91012 -3.00842,4.82347 -0.0304,3.35351 -0.0983,3.41896 -1.56183,1.50589 -1.51617,-1.98189 -1.54314,-1.9823 -2.97812,-0.0453 -1.2753,1.72146 -1.25789,2.06113 0.14595,2.84676 1.01097,0.56577 1.39751,1.67968 1.05674,3.04531 -0.4055,1.625 0.24849,2.68995 2.66588,4.34108 4.00355,2.73452 3.90134,2.73072 7.04003,0.26182 z M 204,146 c 0,-0.55 0.42344,-1 0.94098,-1 0.51754,0 1.2191,0.45 1.55902,1 0.33992,0.55 -0.0835,1 -0.94098,1 C 204.70156,147 204,146.55 204,146 z m 15.56363,-11.89704 c -0.3408,-0.55144 0.33314,-1.51253 1.49767,-2.13576 1.80515,-0.96609 2.06728,-0.87513 1.778,0.61696 -0.39666,2.04596 -2.38118,2.96611 -3.27567,1.5188 z m -58.62155,5.32725 C 159.60824,137.82304 157,137.49934 157,138.94098 c 0,0.51754 0.45,1.2191 1,1.55902 0.55,0.33992 1,1.62648 1,2.85902 0,1.23254 0.5625,2.80872 1.25,3.50263 1.00246,1.0118 1.31229,0.54251 1.56453,-2.36979 0.17298,-1.99729 -0.21962,-4.27503 -0.87245,-5.06165 z M 167,142.44098 c 0,-1.69692 -2.5769,-1.93459 -3.5691,-0.32918 -0.75384,1.21975 1.49206,3.05385 2.77135,2.2632 C 166.64101,144.10383 167,143.23352 167,142.44098 z m 94.42579,-28.1082 c 0.85148,-2.21892 -1.02886,-4.12971 -2.55857,-2.6 -1.22427,1.22427 -0.51516,4.26722 0.99441,4.26722 0.50841,0 1.21229,-0.75025 1.56416,-1.66722 z M 158.77083,99.1875 C 158.98854,98.534375 158.45417,98 157.58333,98 156.7125,98 156,98.7125 156,99.583333 c 0,1.765927 2.15276,1.458387 2.77083,-0.395833 z M 163.5,88.166667 c 0,-1.808656 -1.9573,-1.478465 -2.3455,0.39568 -0.21599,1.042717 0.15888,1.499861 1,1.219487 0.74002,-0.246675 1.3455,-0.973501 1.3455,-1.615167 z M 92.675343,297.34201 c -0.361895,-0.3619 -0.190044,-1.22183 0.381891,-1.91097 0.721602,-0.86948 0.713954,-1.45442 -0.02499,-1.91111 C 91.138204,292.34935 93.026684,291 96.559017,291 c 4.095443,0 4.366553,1.41287 0.889461,4.63533 -2.652727,2.45846 -3.660877,2.81894 -4.773135,1.70668 z M 87.8125,292.31689 c 0.721875,-0.28887 1.584375,-0.25335 1.916667,0.0789 0.332291,0.33229 -0.258334,0.56864 -1.3125,0.52522 -1.164943,-0.048 -1.4019,-0.28494 -0.604167,-0.60416 z M 118,261.5 c 0,-0.825 0.45,-1.5 1,-1.5 0.55,0 1,0.675 1,1.5 0,0.825 -0.45,1.5 -1,1.5 -0.55,0 -1,-0.675 -1,-1.5 z m 59.22195,-26.66585 c 0.51655,-1.54965 3.659,-1.81033 4.02805,-0.33415 0.1375,0.55 -0.81262,1.15037 -2.11138,1.33415 -1.61892,0.22908 -2.22156,-0.0853 -1.91667,-1 z m -8.71034,-12.81537 c -0.22504,-0.36411 0.46532,-1.41077 1.53413,-2.32591 1.48082,-1.26792 2.81952,-1.48184 5.62527,-0.89889 3.89518,0.8093 5.76464,3.1338 2.66232,3.31036 -1.00833,0.0574 -3.53866,0.21056 -5.62295,0.3404 -2.08429,0.12983 -3.97374,-0.0618 -4.19877,-0.42596 z m 9.67589,-16.08128 c 0.24062,-0.72188 1.02812,-1.50938 1.75,-1.75 0.75,-0.25 1.125,0.125 0.875,0.875 -0.24063,0.72187 -1.02813,1.50937 -1.75,1.75 -0.75,0.25 -1.125,-0.125 -0.875,-0.875 z M 176.38,187.54789 c -0.68937,-1.79649 0.42805,-3.78456 1.6891,-3.00518 1.26716,0.78314 1.18433,4.45729 -0.10048,4.45729 -0.56727,0 -1.28214,-0.65345 -1.58862,-1.45211 z m -1.73062,-12.78064 c -0.69507,-2.65797 0.60626,-4.26687 2.77733,-3.43375 1.28881,0.49457 1.35976,1.04105 0.4067,3.13278 -1.42383,3.12496 -2.42089,3.2192 -3.18403,0.30097 z m -5.5571,-6.02454 c -0.5329,-1.40164 -1.46852,-2.85721 -2.07916,-3.2346 -0.8064,-0.49839 -0.78977,-1.0723 0.0608,-2.09714 1.64549,-1.98269 2.92611,-1.75397 2.92611,0.52261 0,1.33319 0.80547,2.03183 2.59405,2.25 l 2.59404,0.31642 -2.56345,2.39557 -2.56345,2.39557 -0.96891,-2.54843 z m -14.54957,-9.67361 c -0.31644,-0.512 -0.11799,-1.21356 0.44098,-1.55902 0.55897,-0.34546 1.01631,0.0734 1.01631,0.9309 0,1.75653 -0.60006,2.01516 -1.45729,0.62812 z m -7.73021,-42.75221 c 0.72187,-0.28887 1.58437,-0.25335 1.91667,0.0789 0.33229,0.3323 -0.25834,0.56864 -1.3125,0.52522 -1.16495,-0.048 -1.4019,-0.28494 -0.60417,-0.60416 z M 112.72501,113.125 c -1.11625,-5.19627 -0.77644,-25.424528 0.36118,-21.500761 0.4982,1.718331 1.58817,3.690537 2.42215,4.382679 1.10687,0.918627 1.22676,1.607339 0.44398,2.550532 -0.58979,0.710651 -1.39408,5.03845 -1.78732,9.61732 -0.5928,6.90253 -0.83888,7.74847 -1.43999,4.95023 z M 141.51008,97.016312 C 140.77253,95.822937 141.70865,94 143.05902,94 c 1.2168,0 1.22469,2.706621 0.0101,3.457295 -0.512,0.316431 -1.21356,0.117988 -1.55902,-0.440983 z M 134.8125,75.316886 c 0.72187,-0.288871 1.58437,-0.253344 1.91667,0.07895 0.33229,0.332292 -0.25834,0.568641 -1.3125,0.52522 -1.16495,-0.04798 -1.4019,-0.284941 -0.60417,-0.604167 z m 5.95328,-6.322921 c -2.95661,-2.721457 -3.10011,-3.104837 -1.51578,-4.04969 0.9625,-0.57401 1.75,-1.883795 1.75,-2.910632 0,-1.026837 0.3375,-2.016976 0.75,-2.20031 1.15705,-0.514242 6.25,-7.577425 6.25,-8.667835 0,-0.532371 1.575,-1.897219 3.5,-3.032997 2.17574,-1.283721 3.5,-2.834528 3.5,-4.098776 C 155,42.666667 155.65561,42 157,42 c 1.11111,0 2,-0.666667 2,-1.5 0,-0.825 0.86547,-1.5 1.92327,-1.5 1.05781,0 3.26027,-1.125 4.89436,-2.5 1.6341,-1.375 3.46862,-2.5 4.07673,-2.5 0.6081,0 1.10564,-0.684647 1.10564,-1.521439 0,-0.836791 1.2375,-2.012998 2.75,-2.613793 1.5125,-0.600795 4.59929,-1.941148 6.85953,-2.978561 C 182.86977,25.848793 185.36727,25 186.15953,25 186.95179,25 188.0275,24.613428 188.55,24.14095 189.822,22.990725 200.37597,21 205.20196,21 210.13463,21 214,23.475297 214,26.634062 c 0,2.064968 -0.35261,2.315543 -2.5,1.776582 -2.14833,-0.539197 -2.5,-0.288677 -2.5,1.780948 0,1.324624 0.52093,2.929336 1.15762,3.566026 C 211.51325,35.113245 209.65175,38 207.42196,38 c -0.73323,0 -2.99092,1.125 -5.0171,2.5 -2.02617,1.375 -4.45177,2.5 -5.39021,2.5 -0.93844,0 -6.56239,3.2625 -12.49766,7.25 -14.66624,9.853235 -14.56805,9.789592 -21.17907,13.726679 C 155.72097,68.512829 152.29059,70 149.44421,70 c -1.2794,0 -2.60429,0.45 -2.94421,1 -1.00303,1.622943 -2.27517,1.177904 -5.73422,-2.006035 z M 216.38,24.547887 c -0.8161,-2.126725 0.63103,-4.138557 1.72969,-2.40465 C 219.2889,24.004273 219.2159,26 217.96862,26 217.40135,26 216.68648,25.346549 216.38,24.547887 z"
       id="path3055"
       inkscape:connector-curvature="0" />
    <path
       style="fill:#1d1a21"
       d="M 190.24499,316.75 C 190.73432,315.26417 195,314.43297 195,315.82346 195,316.79328 192.69077,318 190.83488,318 c -0.55085,0 -0.8163,-0.5625 -0.58989,-1.25 z M 83,303 c 0,-0.55 0.675,-1 1.5,-1 0.825,0 1.5,0.45 1.5,1 0,0.55 -0.675,1 -1.5,1 -0.825,0 -1.5,-0.45 -1.5,-1 z m -8.258839,-8.95359 C 57.293743,278.10046 54.268968,243.13814 67.987294,215.98082 74.217035,203.64819 81.642347,194.11775 96.534173,179.34069 l 15.277047,-15.1593 0.23845,-12.8407 c 0.13115,-7.06238 0.28613,-15.38988 0.34439,-18.50556 0.13192,-7.0543 1.57059,-8.95641 1.70315,-2.2518 0.25384,12.83798 0.75143,26.94634 1.31967,37.41667 0.34327,6.325 0.82088,15.18144 1.06136,19.68098 0.24048,4.49954 1.13717,9.85613 1.99263,11.90354 0.85546,2.04741 1.4073,3.87064 1.22631,4.05163 -0.53498,0.53499 -7.13672,-2.05198 -7.88115,-3.08833 -0.37618,-0.52369 -0.98399,-3.13359 -1.35068,-5.79977 -0.36669,-2.66618 -1.10781,-4.70056 -1.64693,-4.52086 -2.44066,0.81356 -10.75704,8.59877 -12.40403,11.61179 -1.003842,1.83644 -2.745242,4.09402 -3.869779,5.01685 -1.124536,0.92283 -2.931854,3.47029 -4.016262,5.66102 -3.985181,8.0509 -6.468454,11.25539 -10.204963,13.16879 -3.328527,1.70448 -4.118114,2.83066 -6.100518,8.7011 -2.76495,8.18778 -4.13962,26.54471 -2.368321,31.62586 0.841434,2.41374 0.849845,3.63866 0.03176,4.6244 -0.854612,1.02974 -0.390386,2.16379 2.000414,4.88676 3.299216,3.7576 3.730356,4.97683 2.113284,5.97624 -0.55,0.33992 -1,0.0665 -1,-0.60765 0,-0.67413 -0.224575,-1.00111 -0.499055,-0.72663 -0.27448,0.27448 0.623636,2.71198 1.995815,5.41667 1.372178,2.70468 2.496753,5.3801 2.499055,5.94537 0.0023,0.56527 0.904185,1.79836 2.004185,2.74021 1.725655,1.47755 2.812712,4.73203 1.580587,4.73203 -0.230677,0 -2.858418,-2.22911 -5.839426,-4.95359 z M 103,188 c 0,-0.55 -0.19844,-1 -0.44098,-1 -0.24254,0 -0.7191,0.45 -1.05902,1 -0.33992,0.55 -0.14148,1 0.44098,1 0.58246,0 1.05902,-0.45 1.05902,-1 z m 155.39812,96.7269 c 1.59397,-1.22479 5.19397,-4.0703 8,-6.32334 2.80604,-2.25305 9.04569,-7.06888 13.8659,-10.70186 49.38931,-37.22456 96.36487,-81.43361 113.36753,-106.69102 C 396.0342,157.44155 398,154.89051 398,155.3417 c 0,1.18397 -6.35255,13.66664 -9.56338,18.79192 -9.72075,15.51667 -42.29452,48.72116 -70.01079,71.36638 -16.6658,13.61657 -53.58851,38.3337 -60.92583,40.7855 -1.36525,0.4562 -1.08021,-0.0385 0.89812,-1.5586 z M 102.5,260 c 0.33992,-0.55 0.81648,-1 1.05902,-1 0.24254,0 0.44098,0.45 0.44098,1 0,0.55 -0.47656,1 -1.05902,1 -0.58246,0 -0.7809,-0.45 -0.44098,-1 z m 3.54584,-5.08565 c 0.61391,-1.1471 1.36033,-1.84151 1.65872,-1.54312 0.82426,0.82426 -0.49605,3.62877 -1.70836,3.62877 -0.73956,0 -0.72434,-0.63946 0.0496,-2.08565 z M 189,252.1884 c 0,-0.44638 4.79356,-1.39746 10.65235,-2.1135 5.85879,-0.71604 12.00023,-1.68846 13.64765,-2.16094 1.64741,-0.47247 6.64136,-1.35299 11.09765,-1.9567 9.29315,-1.25898 23.52906,-4.72223 25.30855,-6.15694 0.6634,-0.53487 1.68868,-0.6743 2.2784,-0.30984 2.34042,1.44646 35.18788,-12.44519 48.3081,-20.43017 6.64433,-4.04376 2.96059,-3.59692 -5.56815,0.67541 -7.43715,3.72551 -18.49062,8.22487 -35.22455,14.3383 -3.3,1.2056 -6.45,2.53539 -7,2.9551 -1.32766,1.01314 -22.3059,4.13879 -36.5,5.43832 -15.98428,1.46342 -18.78884,1.49192 -19.85955,0.20179 -0.85309,-1.02791 -0.19193,-1.80447 2.9759,-3.49537 2.23996,-1.19562 4.916,-2.17386 5.94677,-2.17386 2.60213,0 1.38733,-2.79438 -1.38746,-3.19153 C 201.15899,233.44827 200.02813,230 202.42668,230 203.292,230 204,229.325 204,228.5 c 0,-1.90237 -0.48708,-1.88218 -3.58653,0.14865 -2.0307,1.33057 -2.74743,1.40292 -3.71482,0.375 -0.93374,-0.99216 -0.91212,-1.37837 0.0978,-1.74748 0.71307,-0.2606 2.71264,-1.76728 4.4435,-3.34817 3.22842,-2.94871 5.07702,-3.21981 2.73807,-0.40155 -1.11285,1.34089 -0.98549,1.65884 0.8575,2.1408 1.19454,0.31237 2.16445,1.36203 2.16445,2.34239 0,0.97701 0.66059,2.02987 1.46797,2.3397 1.81225,0.69542 3.22903,-1.30054 1.62628,-2.29109 -2.19789,-1.35837 0.0489,-3.85688 4.46933,-4.96994 2.49908,-0.62928 4.3206,-1.6432 4.18199,-2.32785 -0.13506,-0.66714 0.87943,-1.37719 2.25443,-1.57789 1.375,-0.20071 3.175,-0.94017 4,-1.64326 0.825,-0.70308 2.175,-1.55621 3,-1.89584 0.825,-0.33963 -1.425,-0.3179 -5,0.0483 -9.81767,1.00564 -11.26226,0.93198 -11.78883,-0.60112 -0.34161,-0.99457 0.0243,-1.21428 1.24316,-0.74655 1.03185,0.39596 2.86308,-0.14599 4.54851,-1.34612 2.37838,-1.69356 2.70215,-2.43976 2.06246,-4.75345 -0.65762,-2.37857 -1.21259,-2.71246 -4.16205,-2.50401 -3.06081,0.21631 -3.202,0.11831 -1.40325,-0.97389 1.1,-0.66792 3.125,-1.25156 4.5,-1.29697 1.375,-0.0454 3.9625,-0.43042 5.75,-0.85557 1.96103,-0.46642 3.25,-0.38902 3.25,0.19516 0,0.53249 -1.62098,1.27227 -3.60218,1.64394 -4.60976,0.8648 -3.839,1.61124 2.00436,1.9411 3.41924,0.19302 5.02562,-0.20952 6.25437,-1.56728 0.90939,-1.00486 2.45712,-1.82701 3.43942,-1.82701 0.9823,0 2.02748,-0.39074 2.32264,-0.8683 0.29515,-0.47757 3.24671,-1.17491 6.55901,-1.54966 6.16612,-0.69762 8.39482,-2.58204 3.05376,-2.58204 -2.22792,0 -2.82499,-0.37426 -2.39301,-1.5 0.31659,-0.825 1.4009,-1.5 2.4096,-1.5 1.0087,0 2.15061,-0.51228 2.53757,-1.13841 0.84599,-1.36884 -6.5212,-0.25377 -8.03554,1.21623 -0.5225,0.5072 -2.67445,0.92218 -4.78212,0.92218 -2.10766,0 -5.44762,0.675 -7.42212,1.5 -1.97451,0.825 -4.99755,1.50277 -6.71788,1.50616 -1.72034,0.003 -4.42602,0.68316 -6.01263,1.51061 -3.05426,1.59285 -5.61525,0.64412 -5.61525,-2.0802 0,-2.24933 2.03655,-2.71346 4.02203,-0.91663 1.80784,1.63607 2.04071,1.57116 5.0074,-1.39552 2.03775,-2.03776 3.00082,-3.89003 2.79098,-5.3679 -0.44172,-3.11087 -2.10156,-2.37653 -3.40963,1.50846 -1.26569,3.75916 -4.08578,4.48653 -3.58782,0.92539 0.17763,-1.27029 -0.19861,-2.93808 -0.83609,-3.70619 C 213.53137,187.7304 214.53118,186 217,186 c 1.03508,0 2.14793,-0.43035 2.47301,-0.95633 0.32507,-0.52598 1.20611,-0.7203 1.95786,-0.43182 0.75176,0.28847 1.66587,0.0406 2.03136,-0.55074 0.36549,-0.59138 -0.0767,-1.35968 -0.98269,-1.70734 -1.23645,-0.47446 -1.33565,-0.82466 -0.39781,-1.40428 0.9048,-0.5592 0.38791,-1.6337 -1.87402,-3.89563 -2.81254,-2.81254 -3.35159,-2.99555 -5.41557,-1.83865 -1.26068,0.70664 -2.652,1.84729 -3.09183,2.53479 -0.43983,0.6875 -2.07918,1.25 -3.64301,1.25 -3.13679,0 -3.63433,-0.83191 -3.5884,-6 0.0269,-3.02587 0.3359,-3.46773 2.2811,-3.26179 2.54374,0.26931 3.06306,-1.48898 0.70683,-2.39315 -1.36853,-0.52515 -1.35312,-0.80217 0.13612,-2.44777 1.5441,-1.70621 1.54804,-1.90596 0.0489,-2.48123 -0.8967,-0.34409 -1.39355,-1.00882 -1.10409,-1.47717 0.73595,-1.19079 3.70756,0.0755 5.26893,2.24526 1.92747,2.67849 2.79848,2.25987 4.58429,-2.20331 1.4171,-3.54167 1.90521,-3.9446 4.10858,-3.39159 2.0341,0.51053 2.50043,0.25978 2.50043,-1.34448 0,-1.638 0.6858,-1.97204 4.04863,-1.97204 2.84701,0 4.63935,-0.63407 6.03895,-2.13637 1.09468,-1.175 2.47088,-2.13636 3.05821,-2.13636 0.58734,0 3.32859,-1.8 6.09168,-4 2.76308,-2.2 5.55581,-4 6.20607,-4 1.90099,0 6.1605,-5.13186 8.30015,-10 1.08781,-2.475 3.16549,-5.76068 4.61707,-7.30152 1.82018,-1.9321 2.63924,-3.89213 2.63924,-6.31574 0,-1.93282 0.45389,-4.36232 1.00864,-5.39889 0.55476,-1.03657 1.18592,-5.16948 1.4026,-9.18426 C 266.6279,99.784816 266.9023,96.05 267.021,95.5 c 0.51794,-2.399767 -0.19155,-3.387718 -2.64534,-3.683578 -2.26536,-0.273141 -2.65488,-0.833239 -2.84766,-4.094786 -0.13933,-2.357263 -0.93468,-4.298517 -2.11464,-5.161325 -2.38721,-1.74557 -3.7198,-1.001393 -2.45126,1.368894 C 258.14312,86.135949 257.40345,87 254.33333,87 253.05,87 252,87.380256 252,87.845012 c 0,1.450663 3.56585,4.151619 5.57874,4.225625 1.16311,0.04276 0.24282,0.816374 -2.33216,1.960445 -2.43247,1.080759 -4.74878,2.977022 -5.41051,4.429363 -1.22334,2.684945 -2.31642,3.189385 -3.33607,1.539555 -1.03887,-1.680921 -3.5,-1.112139 -3.5,0.80887 0,0.99488 -0.6263,2.66539 -1.39179,3.71225 -1.19172,1.62978 -1.62644,1.70864 -3.02416,0.54863 -0.89781,-0.74511 -1.92616,-1.06098 -2.28522,-0.70192 -0.35905,0.35906 0.19734,1.27449 1.23642,2.03429 1.58449,1.15861 1.67898,1.63483 0.58572,2.95212 -1.17259,1.41288 -1.60088,1.35082 -4.26356,-0.61778 -1.90748,-1.41027 -3.20848,-1.81462 -3.65872,-1.13714 -0.38428,0.57822 -2.16119,1.90194 -3.94869,2.9416 -2.10975,1.22709 -3.25,2.66253 -3.25,4.09135 0,2.59101 -1.76928,3.47392 -4.32405,2.15779 -1.4405,-0.7421 -1.93815,-0.5034 -2.36664,1.13512 -0.38382,1.46775 -1.35039,2.07482 -3.3035,2.07482 -1.5185,0 -3.32112,0.675 -4.00581,1.5 -0.68469,0.825 -2.22479,1.5 -3.42244,1.5 -1.19766,0 -2.66677,0.48921 -3.26469,1.08713 -0.78285,0.78285 -1.2752,0.78285 -1.75902,0 C 199.44357,122.29065 197,122.8617 197,124.91764 c 0,1.22212 -1.35726,2.58224 -3.74211,3.75 -2.05816,1.0078 -4.21322,2.79687 -4.78904,3.97571 -2.59054,5.3035 -7.08174,7.65111 -5.94331,3.10665 0.69709,-2.78271 -1.6999,-6.37831 -3.50738,-5.26122 -2.19173,1.35456 -8.39513,1.33831 -11.01816,-0.0289 -1.375,-0.71667 -3.33889,-1.56894 -4.3642,-1.89392 -1.35681,-0.43005 -1.73477,-1.26793 -1.38867,-3.07844 0.52762,-2.76009 0.36466,-2.88539 -2.06287,-1.58608 -1.52344,0.8154 -1.66505,0.10169 -1.48309,-7.4745 0.11064,-4.60678 0.67314,-9.25786 1.25,-10.33573 C 160.52802,105.01338 161,103.482 161,102.68819 c 0,-0.79382 0.69548,-2.0205 1.54551,-2.725959 0.85003,-0.705462 1.32678,-1.852662 1.05944,-2.549332 -0.26734,-0.69667 0.16218,-1.804674 0.95449,-2.462231 C 165.35175,94.293112 166,93.219402 166,92.564646 c 0,-1.588514 4.9823,-6.18439 7.53644,-6.951907 1.12003,-0.336572 4.20673,-2.662077 6.85931,-5.167789 4.04877,-3.824589 5.26838,-4.457993 7.59839,-3.946237 2.20302,0.483864 3.1899,0.08277 4.7846,-1.944556 C 194.13524,72.829646 195.76201,72 197.78693,72 c 1.74337,0 3.2401,-0.628052 3.5747,-1.5 0.31658,-0.825 1.34179,-1.5 2.27824,-1.5 0.93646,0 2.52866,-0.747527 3.53822,-1.661171 1.00957,-0.913644 3.07,-1.769019 4.57874,-1.900832 3.27416,-0.286051 12.51707,-3.592323 14.4048,-5.152723 2.52307,-2.085575 8.39169,-2.589101 10.11309,-0.867701 2.09976,2.099759 2.72528,1.99542 2.72528,-0.454585 0,-1.838562 0.45493,-1.982402 4.66969,-1.476464 2.56832,0.308302 5.69874,0.818826 6.95648,1.134498 1.85092,0.464553 2.41105,0.07886 2.93872,-2.023537 C 254.24732,53.878457 256,53.000409 256,55.377555 c 0,0.757656 0.72217,1.976904 1.60482,2.709441 1.38528,1.149675 1.97574,0.877421 4.31607,-1.990063 2.49406,-3.055856 2.8404,-3.192784 4.32375,-1.709441 0.88687,0.88688 1.89004,1.612508 2.22924,1.612508 1.15845,0 -0.75204,-7.497821 -2.11481,-8.29969 -0.74749,-0.43983 -1.34485,-1.56483 -1.32747,-2.5 0.0244,-1.313463 0.5932,-1.061954 2.5,1.105454 l 2.4684,2.805763 0,-2.727023 c 0,-1.499862 -0.77813,-3.586851 -1.72919,-4.637752 -1.64022,-1.812424 -1.63737,-1.962113 0.0554,-2.909456 0.98155,-0.549299 2.17732,-2.031599 2.65729,-3.293998 C 271.81902,33.345819 279.13659,29 282.00127,29 c 0.75341,0 2.29883,-0.828719 3.43428,-1.841597 2.69442,-2.403566 12.09082,-5.231411 18.17524,-5.469839 L 308.42275,21.5 l 7.31763,12.372717 c 6.84026,11.565578 14.45855,27.663076 17.24524,36.439301 1.37527,4.331183 2.84698,5.112425 11.51438,6.11228 34.51256,3.981303 50.00014,10.967166 57.80952,26.075702 4.17261,8.0726 6.22556,19.43324 3.78436,20.94198 -0.49837,0.30801 -0.70858,1.34706 -0.46713,2.30902 0.5121,2.04032 -3.02119,12.54715 -4.37069,12.99698 -0.50467,0.16822 -0.71766,-1.05625 -0.47332,-2.72106 0.79459,-5.41386 -2.86804,-2.56641 -5.3598,4.16689 -0.34475,0.93159 -1.59344,1.83159 -2.77488,2 -1.72687,0.24615 -2.08165,0.87103 -1.80937,3.18686 0.31239,2.65703 0.13616,2.82983 -2.27018,2.22588 -2.30654,-0.5789 -2.67895,-0.30433 -3.21369,2.36933 -0.64898,3.2449 -2.05762,3.96218 -2.99319,1.52412 C 381.53966,149.35799 380,149.64548 380,151.94098 c 0,1.06754 -0.4892,2.24333 -1.08712,2.61286 -0.59791,0.36953 -0.87051,1.50018 -0.60577,2.51254 0.65845,2.51793 -1.61582,5.41287 -3.64165,4.63549 -1.87835,-0.72079 -4.67869,2.64986 -9.75751,11.7447 -3.64392,6.52531 -18.22668,21.85108 -26.90795,28.27894 -3.025,2.2398 -11.575,7.56147 -19,11.82593 -41.64859,23.92038 -73.01209,34.92831 -109.42368,38.40541 C 196.47536,253.20792 189,253.29204 189,252.1884 z M 215.5,228 c -0.33992,-0.55 -1.06803,-1 -1.61803,-1 -0.55,0 -0.72189,0.45 -0.38197,1 0.33992,0.55 1.06803,1 1.61803,1 0.55,0 0.72189,-0.45 0.38197,-1 z m 7.5,-2 c 0,-0.55 -0.19844,-1 -0.44098,-1 -0.24254,0 -0.7191,0.45 -1.05902,1 -0.33992,0.55 -0.14148,1 0.44098,1 0.58246,0 1.05902,-0.45 1.05902,-1 z m 16,-12.5 c 0,-0.825 -0.42344,-1.5 -0.94098,-1.5 -1.26098,0 -2.1641,1.56159 -1.36517,2.36052 C 237.82004,215.4867 239,215.04641 239,213.5 z m 90,-12.64948 c 0,-1.36686 -1.64664,-0.98122 -3.05472,0.71542 -0.71479,0.86126 -2.56989,2.22282 -4.12245,3.02568 -1.55256,0.80286 -2.82283,1.8796 -2.82283,2.39276 0,0.51315 2.25,-0.46567 5,-2.17516 2.75,-1.70949 5,-3.49091 5,-3.9587 z m -71.09131,-9.45486 c 1.76878,-0.88238 3.0582,-1.76211 2.86536,-1.95494 -0.44718,-0.44718 -7.51158,1.96348 -8.42205,2.87394 -1.28737,1.28738 2.33473,0.68833 5.55669,-0.919 z M 265,188 c 0,-0.55 -0.42344,-1 -0.94098,-1 -0.51754,0 -1.2191,0.45 -1.55902,1 -0.33992,0.55 0.0835,1 0.94098,1 0.85746,0 1.55902,-0.45 1.55902,-1 z m -34.96483,-4.54238 c 0.88808,-1.07006 1.59927,-1.22318 2.32245,-0.5 1.69992,1.69992 2.64238,1.20108 2.64238,-1.3986 0,-3.12366 -1.94806,-4.35053 -3.51195,-2.2118 -0.66469,0.90903 -1.66894,1.65278 -2.23166,1.65278 -0.56272,0 -1.25848,0.9 -1.54614,2 -0.62268,2.38115 0.5388,2.60976 2.32492,0.45762 z m 54.40719,-3.36436 c 0.30822,-0.49871 -0.34022,-0.67122 -1.44098,-0.38337 -2.33499,0.61061 -2.63015,1.29011 -0.5604,1.29011 0.79254,0 1.69316,-0.40803 2.00138,-0.90674 z M 343.8251,176.25 C 345.72521,171.35623 350,153.90279 350,151.03868 c 0,-2.48872 -0.43727,-2.85299 -4.13445,-3.44419 -4.63678,-0.74145 -6.437,0.358 -9.98437,6.09777 -1.53218,2.47911 -1.90249,4.27484 -1.4571,7.06579 0.32843,2.05807 0.19493,4.35847 -0.29667,5.11199 -0.83429,1.27879 1.15244,8.66263 3.19647,11.87996 1.48794,2.34202 5.356,1.44956 6.50122,-1.5 z M 212,174 c 0,-0.55 -0.47656,-1 -1.05902,-1 -0.58246,0 -0.7809,0.45 -0.44098,1 0.33992,0.55 0.81648,1 1.05902,1 0.24254,0 0.44098,-0.45 0.44098,-1 z m 16,-2 c 0,-0.55 -0.45,-1 -1,-1 -0.55,0 -1,0.45 -1,1 0,0.55 0.45,1 1,1 0.55,0 1,-0.45 1,-1 z m 174.45729,-40.9309 c 0.31644,-0.512 0.11799,-1.21356 -0.44098,-1.55902 -0.55897,-0.34546 -1.01631,0.0734 -1.01631,0.9309 0,1.75653 0.60006,2.01516 1.45729,0.62812 z M 187,127 c 0,-0.55 -0.675,-1 -1.5,-1 -0.825,0 -1.5,0.45 -1.5,1 0,0.55 0.675,1 1.5,1 0.825,0 1.5,-0.45 1.5,-1 z m -20,-2 c 0,-0.55 -0.19844,-1 -0.44098,-1 -0.24254,0 -0.7191,0.45 -1.05902,1 -0.33992,0.55 -0.14148,1 0.44098,1 C 166.52344,126 167,125.55 167,125 z M 266.08179,81 C 266.5868,81 267,80.55 267,80 c 0,-1.447943 -1.33595,-1.229606 -3.55887,0.581635 -1.77628,1.447314 -1.78556,1.532239 -0.10934,1 C 264.33927,81.261736 265.57677,81 266.08179,81 z m 9.94296,-19.5651 c 1.63258,-4.293996 1.10511,-5.019302 -1.64803,-2.26616 -1.44281,1.442806 -2.31625,3.120079 -1.94099,3.727272 1.13229,1.832082 2.55756,1.251848 3.58902,-1.461112 z m 8.43614,-3.6849 c -0.37064,-1.2375 -1.58443,-2.971034 -2.69731,-3.852298 l -2.02341,-1.602299 2.20336,-1.543294 C 284.65909,48.850052 283.12592,47.5 278.25029,47.5 c -4.19153,0 -4.10806,1.24419 0.49971,7.448505 3.96715,5.341731 6.90306,6.781948 5.71089,2.801495 z M 290,48.110784 c 0,-1.250033 -3.92911,-5.832858 -3.95308,-4.610784 -0.0503,2.566032 1.32048,5.5 2.56971,5.5 C 289.37748,49 290,48.599853 290,48.110784 z M 105.34508,248.45687 c -0.32569,-0.84872 -0.33097,-1.80431 -0.0117,-2.12354 1.00905,-1.00904 3.66667,0.53862 3.66667,2.13529 0,1.99604 -2.88802,1.98677 -3.65492,-0.0117 z m 10.79614,-3.38805 c -5.31375,-3.41687 -6.10457,-4.58642 -6.13207,-9.06882 -0.0118,-1.925 -0.6937,-4.78894 -1.51531,-6.36431 -1.92304,-3.68726 -1.88935,-3.896 0.50616,-3.13569 1.41932,0.45047 2,0.1797 2,-0.93261 0,-2.39184 1.56766,-1.87435 3.58254,1.18261 1.15541,1.75297 1.86919,4.85015 1.96876,8.54262 0.12887,4.77945 0.61904,6.27574 2.80244,8.55472 4.69748,4.90311 3.32471,5.42508 -3.21252,1.22148 z M 197.5,218 c 0.33992,-0.55 0.81648,-1 1.05902,-1 0.24254,0 0.44098,0.45 0.44098,1 0,0.55 -0.47656,1 -1.05902,1 -0.58246,0 -0.7809,-0.45 -0.44098,-1 z m 3.75,0.33772 C 200.5625,218.06031 200,217.18 200,216.38148 c 0,-1.14197 0.42687,-1.22339 2,-0.38148 3.19407,1.70941 2.56353,3.67476 -0.75,2.33772 z m 5.67349,-0.58772 c -0.89876,-2.93668 -0.61579,-3.57479 1.10787,-2.49834 1.80849,1.12942 1.75526,2.74834 -0.0904,2.74834 -0.51754,0 -0.97541,-0.1125 -1.01749,-0.25 z m -95.46461,-5.81653 c -0.36253,-0.58659 -0.41903,-1.30665 -0.12555,-1.60014 0.71632,-0.71631 2.66667,0.54583 2.66667,1.72569 0,1.27797 -1.72641,1.19267 -2.54112,-0.12555 z M 205,203 c 0,-0.55 0.45,-1 1,-1 0.55,0 1,0.45 1,1 0,0.55 -0.45,1 -1,1 -0.55,0 -1,-0.45 -1,-1 z m 25,-0.87756 c 0,-1.37193 2.80802,-3.35912 3.84289,-2.71954 0.51177,0.31629 1.48658,-0.095 2.16625,-0.91391 1.36415,-1.6437 3.78475,-1.90619 5.79886,-0.62882 0.88721,0.56269 -0.59347,1.52286 -4.60267,2.98469 C 230.57517,203.26234 230,203.36432 230,202.12244 z M 187.21817,172.8455 c 0.51903,-1.5571 2.75625,-1.82979 2.83465,-0.3455 0.0291,0.55 -0.69777,1.15548 -1.61517,1.3455 -1.04271,0.21599 -1.49986,-0.15888 -1.21948,-1 z M 198,172.49339 c 0,-0.82864 -1.125,-2.48479 -2.5,-3.68034 -3.33189,-2.89704 -3.31573,-5.05589 0.0316,-4.21577 2.4257,0.60881 2.4812,0.52483 1.32713,-2.00808 -0.82416,-1.80884 -1.52873,-2.31916 -2.23156,-1.61633 -0.56492,0.56492 -1.79479,1.02713 -2.73304,1.02713 -1.46077,0 -1.53981,-0.35815 -0.55,-2.4922 0.63575,-1.37071 1.91685,-2.49571 2.84689,-2.5 0.93004,-0.004 1.9691,-0.4578 2.30902,-1.0078 0.98168,-1.58839 2.77501,-1.15905 2.13418,0.51094 -0.98283,2.56121 0.49879,7.39649 2.45685,8.01795 1.38646,0.44005 1.62341,1.01387 0.94132,2.27959 -0.50135,0.93034 -1.1723,2.92902 -1.491,4.44152 C 199.93291,174.13758 198,175.08328 198,172.49339 z M 211,156.5 c 0,-0.825 0.675,-1.5 1.5,-1.5 0.825,0 1.5,0.675 1.5,1.5 0,0.825 -0.675,1.5 -1.5,1.5 -0.825,0 -1.5,-0.675 -1.5,-1.5 z m -32,-17 c 0,-0.825 0.45,-1.5 1,-1.5 0.55,0 1,0.675 1,1.5 0,0.825 -0.45,1.5 -1,1.5 -0.55,0 -1,-0.675 -1,-1.5 z m 53,-23 c 0,-0.825 0.45,-1.5 1,-1.5 0.55,0 1,0.675 1,1.5 0,0.825 -0.45,1.5 -1,1.5 -0.55,0 -1,-0.675 -1,-1.5 z M 145.25,65.892583 c -1.915,-1.980237 -1.497,-3.82292 1.13973,-5.024294 C 148.75132,59.792278 151,56.208275 151,53.520335 c 0,-0.762058 0.85974,-1.658431 1.91054,-1.991942 1.0508,-0.33351 2.63617,-1.713834 3.52305,-3.067387 C 157.32048,47.107453 158.75847,46 159.62913,46 c 0.87067,0 2.46795,-1.125 3.54953,-2.5 1.08158,-1.375 2.97769,-2.5 4.21358,-2.5 C 169.58026,41 174,36.981678 174,34.992394 174,34.446577 175.4335,34 177.18555,34 c 1.8621,0 4.11634,-0.874432 5.42597,-2.104769 2.37161,-2.228015 4.68585,-1.833749 3.73782,0.636794 C 185.92721,33.632072 186.57916,34 188.95051,34 c 3.07857,0 3.15614,0.109073 2.85699,4.017648 -0.16913,2.209707 -0.70595,3.897207 -1.19295,3.75 -0.48699,-0.147206 -1.26034,0.745786 -1.71854,1.984427 -0.4582,1.238641 -2.98475,3.584584 -5.61455,5.213206 -2.6298,1.628622 -6.13146,4.091667 -7.78146,5.473433 -1.65,1.381766 -3.73936,2.523323 -4.64301,2.536794 -0.90366,0.01347 -1.90203,0.699492 -2.21862,1.524492 -0.31658,0.825 -1.19721,1.5 -1.95695,1.5 -0.75974,0 -3.29666,1.387447 -5.6376,3.083215 -4.86272,3.522535 -13.60101,5.076881 -15.79382,2.809368 z M 257.54271,53.069098 c -1.07622,-1.741355 1.64179,-2.313168 3.26754,-0.687422 C 262.30135,53.872775 262.25913,54 260.2733,54 c -1.1854,0 -2.41416,-0.418906 -2.73059,-0.930902 z"
       id="path3053"
       inkscape:connector-curvature="0" />
    <path
       style="fill:#130f16"
       d="M 68.697433,284.06494 C 67.763845,282.4845 67,280.47335 67,279.59571 67,278.71807 66.580324,278 66.067388,278 c -1.094495,0 -2.573688,-3.9114 -2.202564,-5.82419 0.141308,-0.7283 -0.15311,-1.8533 -0.654261,-2.5 -2.082447,-2.68723 -3.494494,-13.9406 -2.883082,-22.97683 1.066851,-15.76727 5.542947,-27.937 16.384187,-44.54577 2.029549,-3.10926 10.799693,-12.76202 19.48921,-21.45057 L 112,164.90528 l 0,-5.61931 c 0,-3.09062 0.25854,-5.36076 0.57454,-5.04476 0.316,0.316 0.80379,7.4785 1.08396,15.91667 0.71459,21.52121 0.73513,21.72723 2.99984,30.08583 0.33181,1.22467 0.0337,1.57536 -1.00139,1.17814 -1.88197,-0.72218 -3.76351,-5.25456 -4.20298,-10.12441 -0.18848,-2.08859 -0.64815,-5.90744 -1.02149,-8.48632 l -0.67881,-4.68888 -3.06288,2.18888 c -1.68459,1.20388 -4.2813,3.53888 -5.77046,5.18888 -1.489172,1.65 -3.767951,4.16347 -5.063956,5.5855 -1.296006,1.42202 -3.481374,4.52436 -4.856374,6.89408 -1.375,2.36972 -3.568918,5.44562 -4.875374,6.83533 -1.306456,1.38971 -3.106456,4.15104 -4,6.13628 -0.893544,1.98525 -2.654541,4.71192 -3.913326,6.05927 -1.258784,1.34736 -2.556723,3.5837 -2.884308,4.96964 -0.327586,1.38595 -1.146449,3.1949 -1.819697,4.0199 -0.673248,0.825 -1.721338,2.9824 -2.329089,4.79423 -0.607751,1.81182 -2.021473,4.58129 -3.141604,6.15437 -2.226489,3.12681 -2.60605,5.58143 -1.015107,6.56468 0.598472,0.36988 0.09571,1.38098 -1.214039,2.44155 -1.911386,1.54775 -2.073681,2.16545 -1.119292,4.26011 0.763692,1.67612 0.823451,4.00304 0.189209,7.36747 -0.581249,3.08332 -0.570337,5.66359 0.02926,6.91759 1.424991,2.98025 6.405802,21.5209 5.913647,22.01306 -0.233975,0.23397 -1.189254,-0.86768 -2.122843,-2.44812 z M 265,281.24708 c 0,-0.47903 1.2375,-1.81248 2.75,-2.96321 37.33215,-28.403 55.26745,-42.89404 69.35206,-56.03387 4.27422,-3.9875 8.22502,-7.25 8.77956,-7.25 0.55455,0 2.94447,-2.1375 5.31095,-4.75 2.36647,-2.6125 6.77875,-7.27312 9.80505,-10.35693 3.02631,-3.08381 7.55538,-7.80881 10.0646,-10.5 2.50923,-2.69119 5.65923,-5.86057 7,-7.04308 1.34078,-1.1825 4.78554,-5.2325 7.65503,-9 8.34439,-10.95575 8.60388,-11.18267 5.10672,-4.46546 -1.82819,3.51148 -4.89897,8.14265 -6.82397,10.29147 -3.49178,3.89777 -4.37698,4.9801 -9.88593,12.0876 -1.60442,2.06998 -5.07907,5.66998 -7.72145,8 -5.23746,4.61834 -14.97795,13.74678 -16.76979,15.71606 -4.65111,5.11164 -16.71404,16.80012 -18.59764,18.02034 -1.27353,0.825 -3.76837,2.85 -5.5441,4.5 -10.51186,9.76755 -13.22327,12.1731 -15.47698,13.73109 -1.37726,0.9521 -5.87911,4.23728 -10.00411,7.3004 -6.06295,4.50219 -28.41337,19.62402 -33.75,22.83454 -0.6875,0.4136 -1.25,0.36007 -1.25,-0.11895 z M 205.5,251 c -0.33992,-0.55 0.11008,-1 1,-1 0.88992,0 1.33992,0.45 1,1 -0.33992,0.55 -0.78992,1 -1,1 -0.21008,0 -0.66008,-0.45 -1,-1 z m 5.18911,-1.08911 c 0.59902,-0.59902 5.52652,-1.73681 10.95,-2.52843 5.42349,-0.79162 14.36089,-2.5937 19.86089,-4.00461 5.5,-1.41092 10.675,-2.70504 11.5,-2.87584 5.76119,-1.19267 16.45607,-5.42884 31.26703,-12.38466 4.82187,-2.26454 9.07268,-4.11735 9.44625,-4.11735 0.37357,0 2.27841,-1.04966 4.23297,-2.33259 C 304.01243,217.68574 318.71385,209 319.38703,209 c 1.50346,0 19.49359,-14.38455 21.40746,-17.11697 1.85829,-2.6531 0.29592,-2.34069 -2.73977,0.54783 -1.4051,1.33698 -5.10004,3.92448 -8.21099,5.75 -3.11095,1.82553 -8.73595,5.36452 -12.5,7.86442 -9.78954,6.50175 -26.80439,15.24611 -37.84373,19.44883 -3.85,1.46572 -7.75687,3.06384 -8.68194,3.55138 -0.92506,0.48755 -5.42506,2.10036 -10,3.58403 -4.57493,1.48367 -8.78244,3.04765 -9.35002,3.47552 -0.96946,0.73082 -13.70964,2.71152 -21.46804,3.3376 -1.925,0.15534 -5.84438,0.60903 -8.70973,1.0082 -5.96153,0.83049 -11.58334,-0.0853 -11.00027,-1.79193 0.21776,-0.6374 1.84694,-1.15891 3.62038,-1.15891 2.03004,0 3.58831,-0.64824 4.20673,-1.75 0.54025,-0.9625 1.61908,-1.75 2.3974,-1.75 0.77832,0 1.92471,-0.95217 2.54754,-2.11593 0.99074,-1.85123 1.72052,-2.03792 5.83353,-1.49231 3.23412,0.42902 5.2794,0.20078 6.55426,-0.73142 1.33866,-0.97886 1.51998,-1.56096 0.65309,-2.09672 C 234.68356,226.6864 236.44826,224 238.44388,224 c 0.65945,0 2.96685,-0.90431 5.12756,-2.00958 l 3.92856,-2.00959 -3.63548,0.59939 c -4.02604,0.66379 -6.61166,-1.31057 -2.96514,-2.26416 C 242.05472,218.01393 243,217.14422 243,216.38337 243,215.62252 243.63677,215 244.41505,215 c 0.77828,0 2.48663,-0.95449 3.79635,-2.12108 1.34696,-1.19977 3.99048,-2.21878 6.08605,-2.346 2.03761,-0.12371 4.52718,-0.96923 5.53239,-1.87893 1.0052,-0.90969 2.77815,-1.65399 3.93988,-1.65399 2.1001,0 3.90872,-1.65489 2.90528,-2.65833 -0.2889,-0.2889 -2.02146,-0.0467 -3.85013,0.53818 C 247.39751,209.81426 236,211.96972 236,209.95289 236,209.4288 236.39375,209 236.875,209 c 0.48125,0 1.145,-1.35 1.475,-3 0.50483,-2.52416 1.07045,-3 3.56598,-3 1.63129,0 3.2441,-0.45 3.58402,-1 0.33992,-0.55 1.88638,-1 3.43657,-1 1.5502,0 3.35827,-0.65034 4.01795,-1.4452 0.65967,-0.79485 3.52727,-2.2044 6.37244,-3.13231 6.63086,-2.16258 8.05837,-3.25327 6.58361,-5.03024 -0.87114,-1.04967 -0.49221,-1.58184 1.73767,-2.44041 2.83587,-1.09189 14.03266,-6.26959 17.85176,-8.25514 1.1,-0.57189 4.95276,-2.50189 8.56169,-4.28889 3.60894,-1.787 7.15154,-3.9598 7.87245,-4.82845 0.72091,-0.86865 1.73567,-1.57936 2.25503,-1.57936 0.51935,0 2.41922,-1.125 4.22194,-2.5 1.80272,-1.375 3.74955,-2.5 4.32629,-2.5 0.57674,0 1.30764,-0.675 1.62423,-1.5 0.75598,-1.97006 -0.76471,-1.92417 -2.42229,0.0731 -0.71805,0.8652 -2.91065,2.44491 -4.87244,3.51047 -1.9618,1.06556 -4.2419,2.35258 -5.0669,2.86005 C 293.11771,175.40718 251.06414,192 246.09932,192 c -0.65062,0 -2.13338,-0.88546 -3.29501,-1.96769 l -2.11207,-1.96768 4.15388,-4.03121 C 247.13075,181.81626 249,179.60661 249,179.12308 c 0,-0.48352 -1.0125,-1.56604 -2.25,-2.40558 -1.90889,-1.29503 -2.06955,-1.82758 -1.05975,-3.51273 1.0428,-1.74022 0.94989,-1.92343 -0.75,-1.47889 -2.1726,0.56814 -2.67639,-1.58974 -0.80747,-3.45866 0.62303,-0.62303 0.8315,-1.91793 0.46326,-2.87754 -0.59958,-1.56248 -0.82862,-1.58567 -2.19226,-0.22203 -1.23787,1.23787 -2.25992,1.32597 -5.46326,0.47095 -5.14682,-1.37376 -5.1013,-3.01051 0.0595,-2.1386 3.94898,0.66718 4,0.63641 4,-2.4121 0,-2.62709 0.37307,-3.0879 2.5,-3.0879 2.80665,0 2.94507,-0.29986 1.4382,-3.11548 -1.48755,-2.77951 0.83707,-7.88452 3.5903,-7.88452 1.21271,0 2.76907,-1.23374 3.83702,-3.04164 1.33308,-2.25671 2.29193,-2.88447 3.71561,-2.43261 1.99512,0.63323 2.30305,-0.0539 1.9485,-4.34817 -0.13253,-1.6052 0.45094,-2.49049 1.88931,-2.86663 C 261.06352,134.01163 262,133.14422 262,132.38337 262,131.62252 262.40787,131 262.90638,131 c 0.49851,0 0.66716,-0.9148 0.37477,-2.03288 -0.29239,-1.11809 0.13938,-2.80559 0.95947,-3.75 2.56983,-2.9594 7.43222,-14.14428 6.53778,-15.03872 -0.47029,-0.47029 -0.37503,-2.10915 0.21242,-3.65425 0.58582,-1.54084 1.33729,-2.52938 1.66991,-2.19675 0.83909,0.83909 4.33927,-3.78704 4.33927,-5.735129 0,-2.262924 -3.08585,-1.979965 -3.69216,0.338554 -0.50352,1.925465 -3.12797,3.582375 -4.11341,2.596935 -0.28562,-0.28562 0.004,-1.667383 0.64313,-3.070587 C 270.4769,97.05397 271,93.703625 271,91.011964 c 0,-2.691662 0.49238,-5.198235 1.09417,-5.570164 0.60179,-0.371929 0.89324,-1.727326 0.64766,-3.011994 -0.36704,-1.920049 0.0732,-2.449899 2.4734,-2.977079 1.60595,-0.352725 3.16265,-1.273886 3.45933,-2.047023 C 278.97124,76.632567 280.05546,76 281.08394,76 c 1.02847,0 2.60708,-1.125 3.50802,-2.5 1.78248,-2.720417 4.28016,-3.217933 6.27536,-1.25 1.01576,1.001877 1.55171,0.864689 2.7,-0.69113 C 294.35529,70.491249 295,68.605307 295,67.367887 c 0,-1.237419 0.45,-2.527968 1,-2.867887 0.55,-0.339919 1,0.08352 1,0.940983 C 297,66.298442 297.47879,67 298.06397,67 c 0.58518,0 0.96732,-1.2375 0.8492,-2.75 -0.11812,-1.5125 -0.14691,-4.312788 -0.064,-6.222861 L 299,54.554277 l 2.99842,3.282853 c 2.85669,3.127672 5.72757,3.497152 4.61343,0.593744 -0.80418,-2.095661 1.30096,-2.815494 4.00371,-1.369029 1.79547,0.960907 2.71671,1.005889 3.54929,0.173304 0.83259,-0.832584 0.45679,-1.292008 -1.44785,-1.770041 -2.43828,-0.61197 -4.36611,-3.14933 -3.24476,-4.270677 0.28562,-0.285622 1.66738,0.0038 3.07059,0.643128 C 316.11483,53.465071 317,53.298735 317,51 c 0,-2.273902 1.16818,-2.505194 4.31574,-0.854491 2.11536,1.109377 2.12906,1.083236 0.43426,-0.82874 -0.9625,-1.085838 -1.75,-3.051445 -1.75,-4.368016 0,-2.316002 0.0437,-2.329687 1.34361,-0.421259 1.7761,2.607439 3.8211,8.692336 2.68541,7.990439 -0.98171,-0.606729 -2.53465,1.309768 -1.72079,2.123633 0.27968,0.279678 1.33724,0.624807 2.35014,0.766956 2.08625,0.292781 4.272,4.247973 7.37373,13.343017 2.43201,7.131295 1.09191,6.494299 18.4679,8.778388 21.76711,2.861305 34.21137,7.000596 42.28851,14.066287 2.89324,2.530931 6.06416,6.244663 7.04649,8.252739 0.98233,2.008077 2.41679,4.643077 3.18768,5.855567 1.8147,2.85426 0.90682,3.67611 -2.39768,2.17048 -3.49006,-1.59018 -4.19501,-0.6389 -2.82779,3.81589 0.82032,2.67287 0.83105,4.0521 0.039,5.00652 -0.60131,0.72452 -2.10962,4.12651 -3.3518,7.55996 -2.01956,5.58215 -2.63211,6.34843 -5.7896,7.24263 -1.94209,0.55 -3.86791,1.3375 -4.27959,1.75 -1.48209,1.48504 -4.60967,0.72228 -5.12543,-1.25 -0.66302,-2.53538 -2.33941,-2.53538 -5.56262,0 -3.1635,2.48841 -3.72713,2.49939 -3.72713,0.0726 0,-2.22937 -5.24854,-6.82695 -5.82372,-5.10142 -0.69559,2.08676 0.77707,5.70947 3.37841,8.3108 3.0653,3.0653 5.64249,13.61075 4.75078,19.43939 -0.31795,2.07826 -2.87925,8.20133 -5.69178,13.60683 -5.62232,10.80574 -15.04274,21.8886 -25.88919,30.45791 -15.03781,11.88071 -52.79567,31.80772 -75.7245,39.9642 -16.83623,5.98916 -23.03991,7.60572 -39.48395,10.28876 -14.03513,2.28999 -16.38316,2.42806 -14.82694,0.87184 z M 227,233 c 0,-0.55 -0.70156,-1 -1.55902,-1 -0.85746,0 -1.2809,0.45 -0.94098,1 0.33992,0.55 1.04148,1 1.55902,1 0.51754,0 0.94098,-0.45 0.94098,-1 z m 30.91667,-15.64068 c 1.00348,-0.86538 -3.5663,-0.22744 -4.91667,0.68637 -1.09546,0.74131 -0.69092,0.83408 1.5,0.34401 1.65,-0.36908 3.1875,-0.83275 3.41667,-1.03038 z M 265.5,215 c 0.33992,-0.55 -0.28197,-1 -1.38197,-1 -1.1,0 -2.27811,0.45 -2.61803,1 -0.33992,0.55 0.28197,1 1.38197,1 1.1,0 2.27811,-0.45 2.61803,-1 z m -12.96896,-1.94978 c -0.36808,-0.59556 -1.13619,-0.79425 -1.7069,-0.44153 -0.67187,0.41524 -0.56959,0.93059 0.29014,1.46194 1.60476,0.99179 2.33522,0.46569 1.41676,-1.02041 z M 287.5,206 c 0.78218,-1.2656 -0.54163,-1.2656 -2.5,0 -1.29269,0.8354 -1.26629,0.97149 0.19098,0.98469 0.93004,0.008 1.9691,-0.43469 2.30902,-0.98469 z m -14,-3 c 0.33992,-0.55 0.14148,-1 -0.44098,-1 -0.58246,0 -1.05902,0.45 -1.05902,1 0,0.55 0.19844,1 0.44098,1 0.24254,0 0.7191,-0.45 1.05902,-1 z m 26.94667,-4.0863 c -0.30303,-0.49031 -1.6525,-0.16972 -2.99882,0.71243 -3.25083,2.13002 -3.08757,2.49284 0.55096,1.22444 1.64935,-0.57497 2.75088,-1.44656 2.44786,-1.93687 z m 6.00628,-2.07422 c 1.40088,-0.63828 2.54705,-1.53828 2.54705,-2 0,-1.32856 -1.30011,-0.95137 -4,1.16052 -2.83922,2.22087 -2.28352,2.54193 1.45295,0.83948 z m -56.84596,-9.42127 C 249.27314,186.54823 249,185.1824 249,184.38303 c 0,-1.14658 -0.42489,-1.226 -2.01271,-0.37623 -1.62493,0.86964 -1.81082,1.45442 -0.96482,3.03519 1.27384,2.3802 4.48276,2.717 3.58452,0.37622 z M 349.5,184 c 0.33992,-0.55 0.14148,-1 -0.44098,-1 -0.58246,0 -1.05902,0.45 -1.05902,1 0,0.55 0.19844,1 0.44098,1 0.24254,0 0.7191,-0.45 1.05902,-1 z m -6.52544,-5.97456 c 1.08601,-1.08601 2.20692,-2.99851 2.49091,-4.25 0.28399,-1.25149 1.66955,-7.16383 3.07902,-13.13852 1.40948,-5.97469 2.30517,-11.12059 1.99043,-11.43534 -1.141,-1.14099 -7.80367,-3.03568 -9.02581,-2.5667 -0.68927,0.2645 -2.71398,2.51497 -4.49934,5.00105 -2.68718,3.74183 -3.14658,5.13358 -2.668,8.0827 0.31796,1.9594 0.10148,4.45314 -0.48107,5.54165 -1.33053,2.48612 1.5114,12.26927 3.98329,13.71222 2.35438,1.37435 2.91211,1.2714 5.13057,-0.94706 z m -20.03985,-1.44677 c 0.96852,-1.167 0.80871,-1.32433 -0.89314,-0.87929 -2.50151,0.65416 -3.73461,2.30062 -1.72303,2.30062 0.79011,0 1.96739,-0.6396 2.61617,-1.42133 z m -3.14953,-17.29286 C 323.0361,157.23311 328.68289,152 327.64693,152 326.83335,152 316,160.018 316,160.62015 c 0,0.746 1.11043,0.35455 3.78518,-1.33434 z M 251,156.62244 c 0,-0.75765 -0.62245,-1.89414 -1.38322,-2.52552 -1.071,-0.88885 -1.52316,-0.78326 -2.00324,0.4678 -0.34102,0.88867 -0.36701,2.02516 -0.0578,2.52552 0.87609,1.41754 3.44423,1.06874 3.44423,-0.4678 z m 116.92971,-5.93146 C 367.96837,150.24602 367.55,150.16008 367,150.5 c -0.55,0.33992 -0.96837,1.60398 -0.92971,2.80902 0.0678,2.11236 0.10112,2.11922 0.92971,0.19098 0.47269,-1.1 0.89106,-2.36406 0.92971,-2.80902 z m -34.81889,-3.94098 3.27887,-4.25 -2.93618,2.5 c -3.27366,2.78735 -4.41549,4.13804 -4.4382,5.25 -0.0298,1.45761 0.8522,0.7039 4.09551,-3.5 z m -77.45491,0.7422 c 1.29745,-2.79734 0.7206,-3.09263 -2.00605,-1.02693 -1.01757,0.77091 -1.55352,1.8816 -1.19098,2.4682 1.03206,1.6699 1.9449,1.25837 3.19703,-1.44127 z M 351.36163,120.5 c 0.31658,-0.825 0.13972,-1.5 -0.39301,-1.5 -0.53274,0 -0.96862,0.675 -0.96862,1.5 0,0.825 0.17686,1.5 0.39301,1.5 0.21616,0 0.65203,-0.675 0.96862,-1.5 z M 203,240 c 0,-0.55 0.42344,-1 0.94098,-1 0.51754,0 1.2191,0.45 1.55902,1 0.33992,0.55 -0.0835,1 -0.94098,1 C 203.70156,241 203,240.55 203,240 z m -90.27083,-7.60417 C 112.32813,231.99479 112,230.97667 112,230.13333 c 0,-1.12559 0.29583,-1.2375 1.1125,-0.42083 0.61187,0.61187 0.94,1.63 0.72917,2.2625 -0.21084,0.6325 -0.71146,0.82187 -1.1125,0.42083 z M 227,228 c 0,-0.55 0.70156,-1 1.55902,-1 0.85746,0 1.2809,0.45 0.94098,1 -0.33992,0.55 -1.04148,1 -1.55902,1 C 227.42344,229 227,228.55 227,228 z m 4,-6.38342 c 0,-0.21089 1.11138,-0.59588 2.46974,-0.85555 1.35835,-0.25966 2.2318,-0.0871 1.94098,0.38343 C 234.89864,221.97302 231,222.39033 231,221.61658 z M 112.15789,148 c 0,-1.375 0.22698,-1.9375 0.50439,-1.25 0.27741,0.6875 0.27741,1.8125 0,2.5 -0.27741,0.6875 -0.50439,0.125 -0.50439,-1.25 z m 60.01442,-24.52116 C 171.52754,122.06372 171,119.32174 171,117.38556 c 0,-3.0648 -0.2587,-3.43823 -1.99922,-2.88581 -3.50919,1.11378 -5.43874,-6.91893 -2.39352,-9.96415 0.91935,-0.91935 1.37912,-2.4797 1.07421,-3.64564 -0.33589,-1.28447 0.24858,-2.820006 1.58024,-4.151673 1.37144,-1.371439 1.69643,-2.25224 0.92579,-2.50912 C 169.53437,94.011458 169,93.206207 169,92.43972 c 0,-1.828538 4.59281,-4.80941 6.03594,-3.917507 0.61814,0.382032 1.78845,-0.25418 2.60068,-1.413804 C 178.44885,85.948784 179.95109,85 180.97492,85 184.20684,85 186,83.853116 186,81.786022 c 0,-1.426289 0.46107,-1.82307 1.60733,-1.383211 1.04044,0.399256 2.89205,-0.635015 5.25,-2.932541 2.65508,-2.587049 4.23607,-3.402061 5.83138,-3.00613 1.2038,0.29876 2.48414,0.0652 2.8452,-0.519015 0.37757,-0.610919 1.89064,-0.791153 3.56129,-0.424216 2.47967,0.544628 2.9048,0.333665 2.9048,-1.441454 0,-2.535928 1.52469,-2.706188 2.95031,-0.329455 0.9997,1.666667 1.09968,1.666667 2.09938,0 0.57733,-0.9625 1.51195,-1.75 2.07692,-1.75 0.56498,0 2.37724,-1.35 4.02724,-3 2.74232,-2.742325 3.58132,-3 9.76809,-3 5.47118,0 7.11083,0.378724 8.55672,1.976419 2.12882,2.352324 3.52134,1.788399 3.52134,-1.42603 0,-1.946809 0.61884,-2.406573 3.75,-2.786028 2.0625,-0.249948 4.03065,-0.02712 4.37366,0.495185 C 250.20468,63.905611 247.67815,69 245.78076,69 c -1.97568,0 -2.46107,2.606564 -0.60085,3.226637 2.51983,0.839942 -0.21329,3.755066 -4.10391,4.377201 -2.45606,0.392739 -5.55981,1.974389 -8.03938,4.096815 -3.30318,2.827392 -4.14881,3.170557 -4.64252,1.883969 -0.33202,-0.865224 -1.00652,-1.324162 -1.49888,-1.019861 -1.33057,0.822331 -1.08318,4.185234 0.35478,4.82281 0.6875,0.30483 0.36631,0.45483 -0.71375,0.333333 -1.18038,-0.132783 -2.10647,0.473471 -2.32153,1.51977 -0.31421,1.528731 0.22929,1.664109 4.46375,1.11185 2.65184,-0.345852 5.40857,-1.092119 6.12606,-1.65837 0.94611,-0.746684 1.89039,-0.443679 3.43692,1.102855 2.05151,2.051511 2.06485,2.207053 0.35152,4.100258 -0.97948,1.08232 -2.40981,1.726513 -3.1785,1.43154 -2.18691,-0.839199 -2.93217,2.572154 -0.8884,4.066594 1.28632,0.940584 1.4469,1.50327 0.58162,2.038049 -0.65742,0.4063 -1.86966,0.17906 -2.69388,-0.504978 -1.13508,-0.942033 -1.77937,-0.962915 -2.65619,-0.08609 C 229.12093,100.47907 227.76121,101 226.73603,101 c -1.50068,0 -1.80278,0.63343 -1.55,3.25 0.2658,2.75142 0.0151,3.19794 -1.63413,2.91067 -1.07145,-0.18663 -2.42145,0.28701 -3,1.05254 -0.57854,0.76552 -3.3019,1.81822 -6.0519,2.33932 -4.07331,0.77187 -5.05922,1.36448 -5.31955,3.19747 -0.35724,2.51538 -2.21203,2.87174 -5.20816,1.00062 -1.76992,-1.10533 -2.39657,-0.81711 -5.43544,2.5 C 195.00081,121.11042 192,122.14302 192,119.5 c 0,-1.54295 -1.57234,-2.08723 -2.16667,-0.75 -0.18333,0.4125 -1.79009,1.51328 -3.57058,2.44617 -3.1584,1.65486 -3.30805,1.63659 -6.14435,-0.75 -4.06772,-3.42276 -5.26014,-3.1318 -4.91168,1.19846 0.3514,4.36687 -1.3985,5.42464 -3.03441,1.83421 z M 172,109.94098 C 172,109.42344 171.55,109 171,109 c -0.55,0 -1,0.70156 -1,1.55902 0,0.85746 0.45,1.2809 1,0.94098 0.55,-0.33992 1,-1.04148 1,-1.55902 z M 215,105.5 c 0,-0.825 -0.675,-1.5 -1.5,-1.5 -0.825,0 -1.5,0.675 -1.5,1.5 0,0.825 0.675,1.5 1.5,1.5 0.825,0 1.5,-0.675 1.5,-1.5 z m 3,-1.5 c 0,-0.55 -0.19844,-1 -0.44098,-1 -0.24254,0 -0.7191,0.45 -1.05902,1 -0.33992,0.55 -0.14148,1 0.44098,1 0.58246,0 1.05902,-0.45 1.05902,-1 z m 7,-11.559017 c 0,-1.832983 -1.41441,-1.851505 -2.91929,-0.03823 -0.89421,1.077456 -0.86463,1.509962 0.12755,1.865055 C 223.93964,94.887451 225,94.193583 225,92.440983 z M 198.54112,79.933469 C 199.71375,78.036115 198.0035,77.567928 196.2619,79.309524 194.70296,80.868465 194.70022,81 196.2267,81 c 0.9104,0 1.95188,-0.479939 2.31442,-1.066531 z M 161,119 c 0,-0.55 0.45,-1 1,-1 0.55,0 1,0.45 1,1 0,0.55 -0.45,1 -1,1 -0.55,0 -1,-0.45 -1,-1 z m 41,0.059 c 0,-1.73246 1.7601,-2.053 3.00914,-0.54801 C 206.03751,119.75012 205.8887,120 204.12244,120 202.9551,120 202,119.57656 202,119.05902 z M 404.6,117.4 c -0.35589,-0.92744 -0.42208,-1.91126 -0.14708,-2.18626 0.275,-0.275 0.79119,0.25882 1.14708,1.18626 0.35589,0.92744 0.42208,1.91126 0.14708,2.18626 -0.275,0.275 -0.79119,-0.25882 -1.14708,-1.18626 z M 251.57003,74.113307 c -0.30141,-0.487681 0.12204,-1.442782 0.94098,-2.122445 1.23911,-1.02837 1.48899,-0.879566 1.48899,0.886693 0,2.145366 -1.42114,2.868079 -2.42997,1.235752 z M 260.75,69.912638 c -2.70928,-4.760159 -2.08508,-5.334339 1.75,-1.609757 3.94371,3.83008 4.26821,4.699894 1.75,4.690796 -0.9625,-0.0035 -2.5375,-1.389945 -3.5,-3.081039 z M 271,72 c 0,-0.55 0.45,-1 1,-1 0.55,0 1,0.45 1,1 0,0.55 -0.45,1 -1,1 -0.55,0 -1,-0.45 -1,-1 z m -3,-3 c 0,-0.55 0.45,-1 1,-1 0.55,0 1,0.45 1,1 0,0.55 -0.45,1 -1,1 -0.55,0 -1,-0.45 -1,-1 z m 35.5,-16 c 0.33992,-0.55 0.81648,-1 1.05902,-1 0.24254,0 0.44098,0.45 0.44098,1 0,0.55 -0.47656,1 -1.05902,1 -0.58246,0 -0.7809,-0.45 -0.44098,-1 z m 2.8185,-15.612384 c -0.37992,-0.990055 0.0253,-2.000496 1.02701,-2.561096 C 308.25548,34.317275 309,33.24798 309,32.45031 309,31.652639 309.68357,31 310.51905,31 c 1.12098,0 1.35463,0.655135 0.89159,2.5 -0.47449,1.89052 -0.23534,2.5 0.98095,2.5 0.88463,0 1.64004,-0.7875 1.6787,-1.75 0.0601,-1.496439 0.19481,-1.460215 0.92971,0.25 1.50266,3.496884 1.09048,3.994199 -3.53195,4.261406 -3.42758,0.198138 -4.67394,-0.134362 -5.14955,-1.37379 z m -6.93476,-0.829981 c -0.46761,-1.21859 -0.9421,-1.339125 -1.95672,-0.497068 -2.04694,1.69881 -3.42851,0.197579 -3.09183,-3.359624 0.18748,-1.980834 0.79322,-3.092276 1.58914,-2.915856 2.04433,0.45313 3.91624,-1.678753 3.3558,-3.821855 C 298.92629,24.610139 299.26916,24 300.38337,24 301.35743,24 302,24.832161 302,26.09362 c 0,1.252615 0.8034,2.303712 2,2.616631 C 306.27189,29.304363 306.76256,33 304.56955,33 c -0.78675,0 -1.57425,0.977252 -1.75,2.171672 -0.39422,2.679143 -2.59838,3.568272 -3.43581,1.385963 z M 289.52994,35.5 c -0.45867,-1.1 -1.50264,-2.779059 -2.31995,-3.731242 -1.2057,-1.404672 -1.24825,-2.017732 -0.22556,-3.25 1.52765,-1.840708 3.65655,-1.977026 4.19723,-0.268758 0.2176,0.6875 0.12262,3.05 -0.21107,5.25 -0.50303,3.316472 -0.74921,3.658236 -1.44065,2 z"
       id="path3051"
       inkscape:connector-curvature="0" />
  </g>
</svg>
